<?xml version="1.0" encoding="UTF-8" standalone="no"?>
<!-- Created with Inkscape (http://www.inkscape.org/) -->
<svg
   xmlns:dc="http://purl.org/dc/elements/1.1/"
   xmlns:cc="http://web.resource.org/cc/"
   xmlns:rdf="http://www.w3.org/1999/02/22-rdf-syntax-ns#"
   xmlns:svg="http://www.w3.org/2000/svg"
   xmlns="http://www.w3.org/2000/svg"
   xmlns:xlink="http://www.w3.org/1999/xlink"
   xmlns:sodipodi="http://sodipodi.sourceforge.net/DTD/sodipodi-0.dtd"
   xmlns:inkscape="http://www.inkscape.org/namespaces/inkscape"
   height="160"
   id="svg1"
   inkscape:version="0.45.1"
   sodipodi:docbase="/home/smueller/Projects/pebl/battery/donkey/images"
   sodipodi:docname="apple-8.svg"
   sodipodi:version="0.32"
   width="19.999958"
   inkscape:output_extension="org.inkscape.output.svg.inkscape"
   version="1.0">
  <metadata
     id="metadata3">
    <rdf:RDF>
      <cc:Work
         rdf:about="">
        <dc:title>An Apple</dc:title>
        <dc:description />
        <dc:subject>
          <rdf:Bag>
            <rdf:li>hash</rdf:li>
            <rdf:li />
            <rdf:li>food</rdf:li>
            <rdf:li>apple</rdf:li>
            <rdf:li>fruit</rdf:li>
          </rdf:Bag>
        </dc:subject>
        <dc:publisher>
          <cc:Agent
             rdf:about="http://www.openclipart.org">
            <dc:title>James Birkett</dc:title>
          </cc:Agent>
        </dc:publisher>
        <dc:creator>
          <cc:Agent>
            <dc:title>James Birkett</dc:title>
          </cc:Agent>
        </dc:creator>
        <dc:rights>
          <cc:Agent>
            <dc:title>James Birkett</dc:title>
          </cc:Agent>
        </dc:rights>
        <dc:date />
        <dc:format>image/svg+xml</dc:format>
        <dc:type
           rdf:resource="http://purl.org/dc/dcmitype/StillImage" />
        <cc:license
           rdf:resource="http://web.resource.org/cc/PublicDomain" />
        <dc:language>en</dc:language>
      </cc:Work>
      <cc:License
         rdf:about="http://web.resource.org/cc/PublicDomain">
        <cc:permits
           rdf:resource="http://web.resource.org/cc/Reproduction" />
        <cc:permits
           rdf:resource="http://web.resource.org/cc/Distribution" />
        <cc:permits
           rdf:resource="http://web.resource.org/cc/DerivativeWorks" />
      </cc:License>
    </rdf:RDF>
  </metadata>
  <sodipodi:namedview
     bordercolor="#666666"
     borderopacity="1.0"
     gridspacingx="4.0000000pt"
     gridspacingy="4.0000000pt"
     id="base"
     inkscape:cx="9.999979"
     inkscape:cy="146.02925"
     inkscape:grid-points="true"
     inkscape:pageopacity="0.0"
     inkscape:pageshadow="2"
     inkscape:window-height="779"
     inkscape:window-width="1150"
     inkscape:window-x="92"
     inkscape:window-y="61"
     inkscape:zoom="7.0125"
     pagecolor="#ffffff"
     showgrid="true"
     showguides="true"
     snaptogrid="true"
     snaptoguides="true"
     inkscape:current-layer="svg1"
     height="160px"
     width="19.999958px" />
  <defs
     id="defs3">
    <linearGradient
       id="linearGradient843">
      <stop
         id="stop844"
         offset="0"
         style="stop-color:#00ff00;" />
      <stop
         id="stop846"
         offset="1"
         style="stop-color:#009000;" />
    </linearGradient>
    <linearGradient
       id="linearGradient836">
      <stop
         id="stop837"
         offset="0.0000000"
         style="stop-color:#c8b800;stop-opacity:1.0000000;" />
      <stop
         id="stop839"
         offset="0.69999999"
         style="stop-color:#ff0000;stop-opacity:0.59259260;" />
      <stop
         id="stop838"
         offset="1.0000000"
         style="stop-color:#ff0000;stop-opacity:0.0000000;" />
    </linearGradient>
    <linearGradient
       id="linearGradient828">
      <stop
         id="stop829"
         offset="0.0000000"
         style="stop-color:#ff0000;stop-opacity:1.0000000;" />
      <stop
         id="stop830"
         offset="1.0000000"
         style="stop-color:#8c3300;stop-opacity:1.0000000;" />
    </linearGradient>
    <linearGradient
       id="linearGradient831"
       spreadMethod="reflect"
       x1="0.68148148"
       x2="0.018518519"
       xlink:href="#linearGradient843"
       y1="0.50387597"
       y2="-0.069767445" />
    <radialGradient
       cx="0.22580644"
       cy="0.29714286"
       fx="0.22580647"
       fy="0.29714286"
       id="radialGradient832"
       r="0.59803921"
       xlink:href="#linearGradient828" />
    <radialGradient
       cx="0.48863637"
       cy="0.47169811"
       fx="0.49386889"
       fy="0.46849933"
       id="radialGradient835"
       r="0.30000001"
       xlink:href="#linearGradient836" />
    <radialGradient
       cx="0.60071945"
       cy="0.83168316"
       fx="0.47841707"
       fy="0.98019814"
       id="radialGradient853"
       r="0.4425568"
       xlink:href="#linearGradient836" />
    <radialGradient
       inkscape:collect="always"
       xlink:href="#linearGradient828"
       id="radialGradient2233"
       gradientUnits="userSpaceOnUse"
       gradientTransform="matrix(0.9683023,0,0,1.0142785,89.202521,61.365889)"
       cx="68.0896"
       cy="95.460464"
       fx="68.0896"
       fy="95.460464"
       r="91.218674" />
    <linearGradient
       inkscape:collect="always"
       xlink:href="#linearGradient843"
       id="linearGradient2235"
       gradientUnits="userSpaceOnUse"
       gradientTransform="matrix(1.3566607,0,0,0.7239304,90.349221,60.492416)"
       spreadMethod="reflect"
       x1="69.29705"
       y1="83.207832"
       x2="25.064138"
       y2="44.934326" />
    <radialGradient
       inkscape:collect="always"
       xlink:href="#linearGradient836"
       id="radialGradient2237"
       gradientUnits="userSpaceOnUse"
       gradientTransform="matrix(1.5744212,0,0,0.6238024,89.202521,61.365889)"
       cx="68.570213"
       cy="127.89917"
       fx="63.821735"
       fy="133.66536"
       r="17.182573" />
    <radialGradient
       inkscape:collect="always"
       xlink:href="#linearGradient828"
       id="radialGradient2239"
       gradientUnits="userSpaceOnUse"
       gradientTransform="matrix(0.9683023,0,0,1.0142785,89.202521,61.365889)"
       cx="68.0896"
       cy="95.460464"
       fx="68.0896"
       fy="95.460464"
       r="91.218674" />
    <linearGradient
       inkscape:collect="always"
       xlink:href="#linearGradient843"
       id="linearGradient2241"
       gradientUnits="userSpaceOnUse"
       gradientTransform="matrix(1.3566607,0,0,0.7239304,90.349221,60.492416)"
       spreadMethod="reflect"
       x1="69.29705"
       y1="83.207832"
       x2="25.064138"
       y2="44.934326" />
    <radialGradient
       inkscape:collect="always"
       xlink:href="#linearGradient836"
       id="radialGradient2243"
       gradientUnits="userSpaceOnUse"
       gradientTransform="matrix(1.5744212,0,0,0.6238024,89.202521,61.365889)"
       cx="68.570213"
       cy="127.89917"
       fx="63.821735"
       fy="133.66536"
       r="17.182573" />
    <radialGradient
       inkscape:collect="always"
       xlink:href="#linearGradient828"
       id="radialGradient2293"
       gradientUnits="userSpaceOnUse"
       gradientTransform="matrix(0.9683023,0,0,1.0142785,89.202521,61.365889)"
       cx="68.0896"
       cy="95.460464"
       fx="68.0896"
       fy="95.460464"
       r="91.218674" />
    <linearGradient
       inkscape:collect="always"
       xlink:href="#linearGradient843"
       id="linearGradient2295"
       gradientUnits="userSpaceOnUse"
       gradientTransform="matrix(1.3566607,0,0,0.7239304,90.349221,60.492416)"
       spreadMethod="reflect"
       x1="69.29705"
       y1="83.207832"
       x2="25.064138"
       y2="44.934326" />
    <radialGradient
       inkscape:collect="always"
       xlink:href="#linearGradient836"
       id="radialGradient2297"
       gradientUnits="userSpaceOnUse"
       gradientTransform="matrix(1.5744212,0,0,0.6238024,89.202521,61.365889)"
       cx="68.570213"
       cy="127.89917"
       fx="63.821735"
       fy="133.66536"
       r="17.182573" />
    <radialGradient
       inkscape:collect="always"
       xlink:href="#linearGradient828"
       id="radialGradient2254"
       gradientUnits="userSpaceOnUse"
       gradientTransform="matrix(0.9683023,0,0,1.0142785,89.202521,61.365889)"
       cx="68.0896"
       cy="95.460464"
       fx="68.0896"
       fy="95.460464"
       r="91.218674" />
    <linearGradient
       inkscape:collect="always"
       xlink:href="#linearGradient843"
       id="linearGradient2256"
       gradientUnits="userSpaceOnUse"
       gradientTransform="matrix(1.3566607,0,0,0.7239304,90.349221,60.492416)"
       spreadMethod="reflect"
       x1="69.29705"
       y1="83.207832"
       x2="25.064138"
       y2="44.934326" />
    <radialGradient
       inkscape:collect="always"
       xlink:href="#linearGradient836"
       id="radialGradient2258"
       gradientUnits="userSpaceOnUse"
       gradientTransform="matrix(1.5744212,0,0,0.6238024,89.202521,61.365889)"
       cx="68.570213"
       cy="127.89917"
       fx="63.821735"
       fy="133.66536"
       r="17.182573" />
    <radialGradient
       inkscape:collect="always"
       xlink:href="#linearGradient828"
       id="radialGradient2308"
       gradientUnits="userSpaceOnUse"
       gradientTransform="matrix(0.9683023,0,0,1.0142785,89.202521,61.365889)"
       cx="68.0896"
       cy="95.460464"
       fx="68.0896"
       fy="95.460464"
       r="91.218674" />
    <linearGradient
       inkscape:collect="always"
       xlink:href="#linearGradient843"
       id="linearGradient2310"
       gradientUnits="userSpaceOnUse"
       gradientTransform="matrix(1.3566607,0,0,0.7239304,90.349221,60.492416)"
       spreadMethod="reflect"
       x1="69.29705"
       y1="83.207832"
       x2="25.064138"
       y2="44.934326" />
    <radialGradient
       inkscape:collect="always"
       xlink:href="#linearGradient836"
       id="radialGradient2312"
       gradientUnits="userSpaceOnUse"
       gradientTransform="matrix(1.5744212,0,0,0.6238024,89.202521,61.365889)"
       cx="68.570213"
       cy="127.89917"
       fx="63.821735"
       fy="133.66536"
       r="17.182573" />
    <radialGradient
       inkscape:collect="always"
       xlink:href="#linearGradient828"
       id="radialGradient2344"
       gradientUnits="userSpaceOnUse"
       gradientTransform="matrix(0.9683023,0,0,1.0142785,89.202521,61.365889)"
       cx="68.0896"
       cy="95.460464"
       fx="68.0896"
       fy="95.460464"
       r="91.218674" />
    <linearGradient
       inkscape:collect="always"
       xlink:href="#linearGradient843"
       id="linearGradient2346"
       gradientUnits="userSpaceOnUse"
       gradientTransform="matrix(1.3566607,0,0,0.7239304,90.349221,60.492416)"
       spreadMethod="reflect"
       x1="69.29705"
       y1="83.207832"
       x2="25.064138"
       y2="44.934326" />
    <radialGradient
       inkscape:collect="always"
       xlink:href="#linearGradient836"
       id="radialGradient2348"
       gradientUnits="userSpaceOnUse"
       gradientTransform="matrix(1.5744212,0,0,0.6238024,89.202521,61.365889)"
       cx="68.570213"
       cy="127.89917"
       fx="63.821735"
       fy="133.66536"
       r="17.182573" />
    <radialGradient
       inkscape:collect="always"
       xlink:href="#linearGradient828"
       id="radialGradient2380"
       gradientUnits="userSpaceOnUse"
       gradientTransform="matrix(0.9683023,0,0,1.0142785,89.202521,61.365889)"
       cx="68.0896"
       cy="95.460464"
       fx="68.0896"
       fy="95.460464"
       r="91.218674" />
    <linearGradient
       inkscape:collect="always"
       xlink:href="#linearGradient843"
       id="linearGradient2382"
       gradientUnits="userSpaceOnUse"
       gradientTransform="matrix(1.3566607,0,0,0.7239304,90.349221,60.492416)"
       spreadMethod="reflect"
       x1="69.29705"
       y1="83.207832"
       x2="25.064138"
       y2="44.934326" />
    <radialGradient
       inkscape:collect="always"
       xlink:href="#linearGradient836"
       id="radialGradient2384"
       gradientUnits="userSpaceOnUse"
       gradientTransform="matrix(1.5744212,0,0,0.6238024,89.202521,61.365889)"
       cx="68.570213"
       cy="127.89917"
       fx="63.821735"
       fy="133.66536"
       r="17.182573" />
    <radialGradient
       inkscape:collect="always"
       xlink:href="#linearGradient828"
       id="radialGradient2416"
       gradientUnits="userSpaceOnUse"
       gradientTransform="matrix(0.9683023,0,0,1.0142785,89.202521,61.365889)"
       cx="68.0896"
       cy="95.460464"
       fx="68.0896"
       fy="95.460464"
       r="91.218674" />
    <linearGradient
       inkscape:collect="always"
       xlink:href="#linearGradient843"
       id="linearGradient2418"
       gradientUnits="userSpaceOnUse"
       gradientTransform="matrix(1.3566607,0,0,0.7239304,90.349221,60.492416)"
       spreadMethod="reflect"
       x1="69.29705"
       y1="83.207832"
       x2="25.064138"
       y2="44.934326" />
    <radialGradient
       inkscape:collect="always"
       xlink:href="#linearGradient836"
       id="radialGradient2420"
       gradientUnits="userSpaceOnUse"
       gradientTransform="matrix(1.5744212,0,0,0.6238024,89.202521,61.365889)"
       cx="68.570213"
       cy="127.89917"
       fx="63.821735"
       fy="133.66536"
       r="17.182573" />
  </defs>
  <g
     id="g2278">
    <g
       transform="matrix(0.113296,0,0,0.1078491,-1.7159452,-1.2294641)"
       id="g2280">
      <path
         d="M 85.75,55.3 C 65.75,60.3 40.75,50.3 35.75,90.3 C 30.75,130.3 65.75,205.3 95.75,195.3 C 110.75,190.3 105.75,190.3 125.75,195.3 C 165.75,205.3 205.75,106.3 185.75,75.3 C 165.75,45.3 125.75,45.3 85.75,55.3 z "
         id="path2282"
         sodipodi:nodetypes="ccssss"
         style="fill:url(#radialGradient2308);stroke:#000000;stroke-width:0.99102402pt" />
      <g
         id="g2284"
         transform="translate(-19.25,-19.7)">
        <path
           d="M 130,80 C 120,50 95,35 70,35 C 60,35 50,35 35,40 C 50,50 60,65 80,65 C 95,65 120,77 130,80 z "
           id="path2286"
           sodipodi:nodetypes="cscsc"
           style="fill:url(#linearGradient2310);stroke:#000000;stroke-width:0.99102402pt" />
        <path
           d="M 35,40 C 70,45 105,50 130,80"
           id="path2288"
           sodipodi:nodetypes="cc"
           style="fill:none;fill-opacity:0.75;stroke:#000000;stroke-width:0.99102402pt" />
        <path
           d="M 55,35.15 C 59,36.15 62,41 65,45 C 60,51 55.5,50 48.3,50.15"
           id="path2290"
           sodipodi:nodetypes="ccc"
           style="fill:none;fill-opacity:0.75;stroke:#000000;stroke-width:0.61939001" />
        <path
           d="M 72,35 C 80,39 82,43 85,50 C 82,54 75.25,60.125 64.25,61.125"
           id="path2292"
           sodipodi:nodetypes="ccc"
           style="fill:none;fill-opacity:0.75;stroke:#000000;stroke-width:0.61939001" />
        <path
           d="M 92,39 C 97,43 101.5,52.5 102.5,57.5 C 97.5,60.5 90,65 80,65"
           id="path2294"
           sodipodi:nodetypes="ccc"
           style="fill:none;fill-opacity:0.75;stroke:#000000;stroke-width:0.61939001" />
        <path
           d="M 110,50 C 115.5,57 113,59 115,65 C 109,66 107,69 100,69"
           id="path2296"
           sodipodi:nodetypes="ccc"
           style="fill:none;fill-opacity:0.75;stroke:#000000;stroke-width:0.61939001" />
      </g>
      <path
         d="M 75.75,70.3 C 80.75,55.3 135.75,50.3 140.75,70.3 C 125.75,75.3 120.75,80.3 105.75,80.3 C 90.75,80.3 85.75,75.3 75.75,70.3 z "
         id="path2298"
         sodipodi:nodetypes="cccc"
         style="fill:url(#radialGradient2312);fill-opacity:1;fill-rule:evenodd;stroke:none;stroke-width:1pt;stroke-linecap:butt;stroke-linejoin:miter;stroke-opacity:1" />
      <path
         d="M 110.75,80 L 105.75,80.3 C 105.75,55.3 110.75,35.3 115.75,25.3 C 120.75,15.3 122.75,7.3 130.75,15.3 C 135.75,20.3 123.9,18.98 120.75,25.3 C 115.75,35.3 110.75,50.3 110.75,80 z "
         id="path2300"
         sodipodi:nodetypes="ccsssc"
         style="fill:#af6700;stroke:#000000;stroke-width:0.99102402pt;stroke-linejoin:bevel" />
      <path
         d="M 140.75,70.3 C 130.75,75.3 120.75,80.3 105.75,80.3 C 90.75,80.3 85.75,75.3 75.75,70.3"
         id="path2302"
         sodipodi:nodetypes="ccc"
         style="fill:none;fill-opacity:1;fill-rule:evenodd;stroke:#000000;stroke-width:0.99102402pt;stroke-linecap:round;stroke-linejoin:round;stroke-opacity:1" />
    </g>
    <text
       transform="scale(1.080523,0.9254778)"
       id="text2304"
       y="21.610365"
       x="-0.88197207"
       style="font-size:29.61112785px;font-style:normal;font-weight:normal;fill:#000000;fill-opacity:1;stroke:none;stroke-width:1px;stroke-linecap:butt;stroke-linejoin:miter;stroke-opacity:1;font-family:Bitstream Vera Sans"
       xml:space="preserve"><tspan
         y="21.610365"
         x="-0.88197207"
         id="tspan2306"
         sodipodi:role="line">X</tspan></text>
  </g>
  <g
     id="g2203"
     transform="translate(0,80)">
    <g
       id="g2205"
       transform="matrix(0.113296,0,0,0.1078491,-1.7159452,-1.2294641)">
      <path
         style="fill:url(#radialGradient2233);stroke:#000000;stroke-width:0.99102402pt"
         sodipodi:nodetypes="ccssss"
         id="path2207"
         d="M 85.75,55.3 C 65.75,60.3 40.75,50.3 35.75,90.3 C 30.75,130.3 65.75,205.3 95.75,195.3 C 110.75,190.3 105.75,190.3 125.75,195.3 C 165.75,205.3 205.75,106.3 185.75,75.3 C 165.75,45.3 125.75,45.3 85.75,55.3 z " />
      <g
         transform="translate(-19.25,-19.7)"
         id="g2209">
        <path
           style="fill:url(#linearGradient2235);stroke:#000000;stroke-width:0.99102402pt"
           sodipodi:nodetypes="cscsc"
           id="path2211"
           d="M 130,80 C 120,50 95,35 70,35 C 60,35 50,35 35,40 C 50,50 60,65 80,65 C 95,65 120,77 130,80 z " />
        <path
           style="fill:none;fill-opacity:0.75;stroke:#000000;stroke-width:0.99102402pt"
           sodipodi:nodetypes="cc"
           id="path2213"
           d="M 35,40 C 70,45 105,50 130,80" />
        <path
           style="fill:none;fill-opacity:0.75;stroke:#000000;stroke-width:0.61939001"
           sodipodi:nodetypes="ccc"
           id="path2215"
           d="M 55,35.15 C 59,36.15 62,41 65,45 C 60,51 55.5,50 48.3,50.15" />
        <path
           style="fill:none;fill-opacity:0.75;stroke:#000000;stroke-width:0.61939001"
           sodipodi:nodetypes="ccc"
           id="path2217"
           d="M 72,35 C 80,39 82,43 85,50 C 82,54 75.25,60.125 64.25,61.125" />
        <path
           style="fill:none;fill-opacity:0.75;stroke:#000000;stroke-width:0.61939001"
           sodipodi:nodetypes="ccc"
           id="path2219"
           d="M 92,39 C 97,43 101.5,52.5 102.5,57.5 C 97.5,60.5 90,65 80,65" />
        <path
           style="fill:none;fill-opacity:0.75;stroke:#000000;stroke-width:0.61939001"
           sodipodi:nodetypes="ccc"
           id="path2221"
           d="M 110,50 C 115.5,57 113,59 115,65 C 109,66 107,69 100,69" />
      </g>
      <path
         style="fill:url(#radialGradient2237);fill-opacity:1;fill-rule:evenodd;stroke:none;stroke-width:1pt;stroke-linecap:butt;stroke-linejoin:miter;stroke-opacity:1"
         sodipodi:nodetypes="cccc"
         id="path2223"
         d="M 75.75,70.3 C 80.75,55.3 135.75,50.3 140.75,70.3 C 125.75,75.3 120.75,80.3 105.75,80.3 C 90.75,80.3 85.75,75.3 75.75,70.3 z " />
      <path
         style="fill:#af6700;stroke:#000000;stroke-width:0.99102402pt;stroke-linejoin:bevel"
         sodipodi:nodetypes="ccsssc"
         id="path2225"
         d="M 110.75,80 L 105.75,80.3 C 105.75,55.3 110.75,35.3 115.75,25.3 C 120.75,15.3 122.75,7.3 130.75,15.3 C 135.75,20.3 123.9,18.98 120.75,25.3 C 115.75,35.3 110.75,50.3 110.75,80 z " />
      <path
         style="fill:none;fill-opacity:1;fill-rule:evenodd;stroke:#000000;stroke-width:0.99102402pt;stroke-linecap:round;stroke-linejoin:round;stroke-opacity:1"
         sodipodi:nodetypes="ccc"
         id="path2227"
         d="M 140.75,70.3 C 130.75,75.3 120.75,80.3 105.75,80.3 C 90.75,80.3 85.75,75.3 75.75,70.3" />
    </g>
    <text
       xml:space="preserve"
       style="font-size:29.61112785px;font-style:normal;font-weight:normal;fill:#000000;fill-opacity:1;stroke:none;stroke-width:1px;stroke-linecap:butt;stroke-linejoin:miter;stroke-opacity:1;font-family:Bitstream Vera Sans"
       x="-0.88197207"
       y="21.610365"
       id="text2229"
       transform="scale(1.080523,0.9254778)"><tspan
         sodipodi:role="line"
         id="tspan2231"
         x="-0.88197207"
         y="21.610365">X</tspan></text>
  </g>
  <g
     id="g2314"
     transform="translate(4.2713852e-5,20)">
    <g
       transform="matrix(0.113296,0,0,0.1078491,-1.7159452,-1.2294641)"
       id="g2316">
      <path
         d="M 85.75,55.3 C 65.75,60.3 40.75,50.3 35.75,90.3 C 30.75,130.3 65.75,205.3 95.75,195.3 C 110.75,190.3 105.75,190.3 125.75,195.3 C 165.75,205.3 205.75,106.3 185.75,75.3 C 165.75,45.3 125.75,45.3 85.75,55.3 z "
         id="path2318"
         sodipodi:nodetypes="ccssss"
         style="fill:url(#radialGradient2344);stroke:#000000;stroke-width:0.99102402pt" />
      <g
         id="g2320"
         transform="translate(-19.25,-19.7)">
        <path
           d="M 130,80 C 120,50 95,35 70,35 C 60,35 50,35 35,40 C 50,50 60,65 80,65 C 95,65 120,77 130,80 z "
           id="path2322"
           sodipodi:nodetypes="cscsc"
           style="fill:url(#linearGradient2346);stroke:#000000;stroke-width:0.99102402pt" />
        <path
           d="M 35,40 C 70,45 105,50 130,80"
           id="path2324"
           sodipodi:nodetypes="cc"
           style="fill:none;fill-opacity:0.75;stroke:#000000;stroke-width:0.99102402pt" />
        <path
           d="M 55,35.15 C 59,36.15 62,41 65,45 C 60,51 55.5,50 48.3,50.15"
           id="path2326"
           sodipodi:nodetypes="ccc"
           style="fill:none;fill-opacity:0.75;stroke:#000000;stroke-width:0.61939001" />
        <path
           d="M 72,35 C 80,39 82,43 85,50 C 82,54 75.25,60.125 64.25,61.125"
           id="path2328"
           sodipodi:nodetypes="ccc"
           style="fill:none;fill-opacity:0.75;stroke:#000000;stroke-width:0.61939001" />
        <path
           d="M 92,39 C 97,43 101.5,52.5 102.5,57.5 C 97.5,60.5 90,65 80,65"
           id="path2330"
           sodipodi:nodetypes="ccc"
           style="fill:none;fill-opacity:0.75;stroke:#000000;stroke-width:0.61939001" />
        <path
           d="M 110,50 C 115.5,57 113,59 115,65 C 109,66 107,69 100,69"
           id="path2332"
           sodipodi:nodetypes="ccc"
           style="fill:none;fill-opacity:0.75;stroke:#000000;stroke-width:0.61939001" />
      </g>
      <path
         d="M 75.75,70.3 C 80.75,55.3 135.75,50.3 140.75,70.3 C 125.75,75.3 120.75,80.3 105.75,80.3 C 90.75,80.3 85.75,75.3 75.75,70.3 z "
         id="path2334"
         sodipodi:nodetypes="cccc"
         style="fill:url(#radialGradient2348);fill-opacity:1;fill-rule:evenodd;stroke:none;stroke-width:1pt;stroke-linecap:butt;stroke-linejoin:miter;stroke-opacity:1" />
      <path
         d="M 110.75,80 L 105.75,80.3 C 105.75,55.3 110.75,35.3 115.75,25.3 C 120.75,15.3 122.75,7.3 130.75,15.3 C 135.75,20.3 123.9,18.98 120.75,25.3 C 115.75,35.3 110.75,50.3 110.75,80 z "
         id="path2336"
         sodipodi:nodetypes="ccsssc"
         style="fill:#af6700;stroke:#000000;stroke-width:0.99102402pt;stroke-linejoin:bevel" />
      <path
         d="M 140.75,70.3 C 130.75,75.3 120.75,80.3 105.75,80.3 C 90.75,80.3 85.75,75.3 75.75,70.3"
         id="path2338"
         sodipodi:nodetypes="ccc"
         style="fill:none;fill-opacity:1;fill-rule:evenodd;stroke:#000000;stroke-width:0.99102402pt;stroke-linecap:round;stroke-linejoin:round;stroke-opacity:1" />
    </g>
    <text
       transform="scale(1.080523,0.9254778)"
       id="text2340"
       y="21.610365"
       x="-0.88197207"
       style="font-size:29.61112785px;font-style:normal;font-weight:normal;fill:#000000;fill-opacity:1;stroke:none;stroke-width:1px;stroke-linecap:butt;stroke-linejoin:miter;stroke-opacity:1;font-family:Bitstream Vera Sans"
       xml:space="preserve"><tspan
         y="21.610365"
         x="-0.88197207"
         id="tspan2342"
         sodipodi:role="line">X</tspan></text>
  </g>
  <g
     transform="translate(4.2713852e-5,100)"
     id="g2263">
    <g
       id="g2265"
       transform="matrix(0.113296,0,0,0.1078491,-1.7159452,-1.2294641)">
      <path
         style="fill:url(#radialGradient2293);stroke:#000000;stroke-width:0.99102402pt"
         sodipodi:nodetypes="ccssss"
         id="path2267"
         d="M 85.75,55.3 C 65.75,60.3 40.75,50.3 35.75,90.3 C 30.75,130.3 65.75,205.3 95.75,195.3 C 110.75,190.3 105.75,190.3 125.75,195.3 C 165.75,205.3 205.75,106.3 185.75,75.3 C 165.75,45.3 125.75,45.3 85.75,55.3 z " />
      <g
         transform="translate(-19.25,-19.7)"
         id="g2269">
        <path
           style="fill:url(#linearGradient2295);stroke:#000000;stroke-width:0.99102402pt"
           sodipodi:nodetypes="cscsc"
           id="path2271"
           d="M 130,80 C 120,50 95,35 70,35 C 60,35 50,35 35,40 C 50,50 60,65 80,65 C 95,65 120,77 130,80 z " />
        <path
           style="fill:none;fill-opacity:0.75;stroke:#000000;stroke-width:0.99102402pt"
           sodipodi:nodetypes="cc"
           id="path2273"
           d="M 35,40 C 70,45 105,50 130,80" />
        <path
           style="fill:none;fill-opacity:0.75;stroke:#000000;stroke-width:0.61939001"
           sodipodi:nodetypes="ccc"
           id="path2275"
           d="M 55,35.15 C 59,36.15 62,41 65,45 C 60,51 55.5,50 48.3,50.15" />
        <path
           style="fill:none;fill-opacity:0.75;stroke:#000000;stroke-width:0.61939001"
           sodipodi:nodetypes="ccc"
           id="path2277"
           d="M 72,35 C 80,39 82,43 85,50 C 82,54 75.25,60.125 64.25,61.125" />
        <path
           style="fill:none;fill-opacity:0.75;stroke:#000000;stroke-width:0.61939001"
           sodipodi:nodetypes="ccc"
           id="path2279"
           d="M 92,39 C 97,43 101.5,52.5 102.5,57.5 C 97.5,60.5 90,65 80,65" />
        <path
           style="fill:none;fill-opacity:0.75;stroke:#000000;stroke-width:0.61939001"
           sodipodi:nodetypes="ccc"
           id="path2281"
           d="M 110,50 C 115.5,57 113,59 115,65 C 109,66 107,69 100,69" />
      </g>
      <path
         style="fill:url(#radialGradient2297);fill-opacity:1;fill-rule:evenodd;stroke:none;stroke-width:1pt;stroke-linecap:butt;stroke-linejoin:miter;stroke-opacity:1"
         sodipodi:nodetypes="cccc"
         id="path2283"
         d="M 75.75,70.3 C 80.75,55.3 135.75,50.3 140.75,70.3 C 125.75,75.3 120.75,80.3 105.75,80.3 C 90.75,80.3 85.75,75.3 75.75,70.3 z " />
      <path
         style="fill:#af6700;stroke:#000000;stroke-width:0.99102402pt;stroke-linejoin:bevel"
         sodipodi:nodetypes="ccsssc"
         id="path2285"
         d="M 110.75,80 L 105.75,80.3 C 105.75,55.3 110.75,35.3 115.75,25.3 C 120.75,15.3 122.75,7.3 130.75,15.3 C 135.75,20.3 123.9,18.98 120.75,25.3 C 115.75,35.3 110.75,50.3 110.75,80 z " />
      <path
         style="fill:none;fill-opacity:1;fill-rule:evenodd;stroke:#000000;stroke-width:0.99102402pt;stroke-linecap:round;stroke-linejoin:round;stroke-opacity:1"
         sodipodi:nodetypes="ccc"
         id="path2287"
         d="M 140.75,70.3 C 130.75,75.3 120.75,80.3 105.75,80.3 C 90.75,80.3 85.75,75.3 75.75,70.3" />
    </g>
    <text
       xml:space="preserve"
       style="font-size:29.61112785px;font-style:normal;font-weight:normal;fill:#000000;fill-opacity:1;stroke:none;stroke-width:1px;stroke-linecap:butt;stroke-linejoin:miter;stroke-opacity:1;font-family:Bitstream Vera Sans"
       x="-0.88197207"
       y="21.610365"
       id="text2289"
       transform="scale(1.080523,0.9254778)"><tspan
         sodipodi:role="line"
         id="tspan2291"
         x="-0.88197207"
         y="21.610365">X</tspan></text>
  </g>
  <g
     id="g2350"
     transform="translate(4.2713852e-5,40)">
    <g
       transform="matrix(0.113296,0,0,0.1078491,-1.7159452,-1.2294641)"
       id="g2352">
      <path
         d="M 85.75,55.3 C 65.75,60.3 40.75,50.3 35.75,90.3 C 30.75,130.3 65.75,205.3 95.75,195.3 C 110.75,190.3 105.75,190.3 125.75,195.3 C 165.75,205.3 205.75,106.3 185.75,75.3 C 165.75,45.3 125.75,45.3 85.75,55.3 z "
         id="path2354"
         sodipodi:nodetypes="ccssss"
         style="fill:url(#radialGradient2380);stroke:#000000;stroke-width:0.99102402pt" />
      <g
         id="g2356"
         transform="translate(-19.25,-19.7)">
        <path
           d="M 130,80 C 120,50 95,35 70,35 C 60,35 50,35 35,40 C 50,50 60,65 80,65 C 95,65 120,77 130,80 z "
           id="path2358"
           sodipodi:nodetypes="cscsc"
           style="fill:url(#linearGradient2382);stroke:#000000;stroke-width:0.99102402pt" />
        <path
           d="M 35,40 C 70,45 105,50 130,80"
           id="path2360"
           sodipodi:nodetypes="cc"
           style="fill:none;fill-opacity:0.75;stroke:#000000;stroke-width:0.99102402pt" />
        <path
           d="M 55,35.15 C 59,36.15 62,41 65,45 C 60,51 55.5,50 48.3,50.15"
           id="path2362"
           sodipodi:nodetypes="ccc"
           style="fill:none;fill-opacity:0.75;stroke:#000000;stroke-width:0.61939001" />
        <path
           d="M 72,35 C 80,39 82,43 85,50 C 82,54 75.25,60.125 64.25,61.125"
           id="path2364"
           sodipodi:nodetypes="ccc"
           style="fill:none;fill-opacity:0.75;stroke:#000000;stroke-width:0.61939001" />
        <path
           d="M 92,39 C 97,43 101.5,52.5 102.5,57.5 C 97.5,60.5 90,65 80,65"
           id="path2366"
           sodipodi:nodetypes="ccc"
           style="fill:none;fill-opacity:0.75;stroke:#000000;stroke-width:0.61939001" />
        <path
           d="M 110,50 C 115.5,57 113,59 115,65 C 109,66 107,69 100,69"
           id="path2368"
           sodipodi:nodetypes="ccc"
           style="fill:none;fill-opacity:0.75;stroke:#000000;stroke-width:0.61939001" />
      </g>
      <path
         d="M 75.75,70.3 C 80.75,55.3 135.75,50.3 140.75,70.3 C 125.75,75.3 120.75,80.3 105.75,80.3 C 90.75,80.3 85.75,75.3 75.75,70.3 z "
         id="path2370"
         sodipodi:nodetypes="cccc"
         style="fill:url(#radialGradient2384);fill-opacity:1;fill-rule:evenodd;stroke:none;stroke-width:1pt;stroke-linecap:butt;stroke-linejoin:miter;stroke-opacity:1" />
      <path
         d="M 110.75,80 L 105.75,80.3 C 105.75,55.3 110.75,35.3 115.75,25.3 C 120.75,15.3 122.75,7.3 130.75,15.3 C 135.75,20.3 123.9,18.98 120.75,25.3 C 115.75,35.3 110.75,50.3 110.75,80 z "
         id="path2372"
         sodipodi:nodetypes="ccsssc"
         style="fill:#af6700;stroke:#000000;stroke-width:0.99102402pt;stroke-linejoin:bevel" />
      <path
         d="M 140.75,70.3 C 130.75,75.3 120.75,80.3 105.75,80.3 C 90.75,80.3 85.75,75.3 75.75,70.3"
         id="path2374"
         sodipodi:nodetypes="ccc"
         style="fill:none;fill-opacity:1;fill-rule:evenodd;stroke:#000000;stroke-width:0.99102402pt;stroke-linecap:round;stroke-linejoin:round;stroke-opacity:1" />
    </g>
    <text
       transform="scale(1.080523,0.9254778)"
       id="text2376"
       y="21.610365"
       x="-0.88197207"
       style="font-size:29.61112785px;font-style:normal;font-weight:normal;fill:#000000;fill-opacity:1;stroke:none;stroke-width:1px;stroke-linecap:butt;stroke-linejoin:miter;stroke-opacity:1;font-family:Bitstream Vera Sans"
       xml:space="preserve"><tspan
         y="21.610365"
         x="-0.88197207"
         id="tspan2378"
         sodipodi:role="line">X</tspan></text>
  </g>
  <g
     transform="translate(4.2713852e-5,120)"
     id="g2224">
    <g
       id="g2226"
       transform="matrix(0.113296,0,0,0.1078491,-1.7159452,-1.2294641)">
      <path
         style="fill:url(#radialGradient2254);stroke:#000000;stroke-width:0.99102402pt"
         sodipodi:nodetypes="ccssss"
         id="path2228"
         d="M 85.75,55.3 C 65.75,60.3 40.75,50.3 35.75,90.3 C 30.75,130.3 65.75,205.3 95.75,195.3 C 110.75,190.3 105.75,190.3 125.75,195.3 C 165.75,205.3 205.75,106.3 185.75,75.3 C 165.75,45.3 125.75,45.3 85.75,55.3 z " />
      <g
         transform="translate(-19.25,-19.7)"
         id="g2230">
        <path
           style="fill:url(#linearGradient2256);stroke:#000000;stroke-width:0.99102402pt"
           sodipodi:nodetypes="cscsc"
           id="path2232"
           d="M 130,80 C 120,50 95,35 70,35 C 60,35 50,35 35,40 C 50,50 60,65 80,65 C 95,65 120,77 130,80 z " />
        <path
           style="fill:none;fill-opacity:0.75;stroke:#000000;stroke-width:0.99102402pt"
           sodipodi:nodetypes="cc"
           id="path2234"
           d="M 35,40 C 70,45 105,50 130,80" />
        <path
           style="fill:none;fill-opacity:0.75;stroke:#000000;stroke-width:0.61939001"
           sodipodi:nodetypes="ccc"
           id="path2236"
           d="M 55,35.15 C 59,36.15 62,41 65,45 C 60,51 55.5,50 48.3,50.15" />
        <path
           style="fill:none;fill-opacity:0.75;stroke:#000000;stroke-width:0.61939001"
           sodipodi:nodetypes="ccc"
           id="path2238"
           d="M 72,35 C 80,39 82,43 85,50 C 82,54 75.25,60.125 64.25,61.125" />
        <path
           style="fill:none;fill-opacity:0.75;stroke:#000000;stroke-width:0.61939001"
           sodipodi:nodetypes="ccc"
           id="path2240"
           d="M 92,39 C 97,43 101.5,52.5 102.5,57.5 C 97.5,60.5 90,65 80,65" />
        <path
           style="fill:none;fill-opacity:0.75;stroke:#000000;stroke-width:0.61939001"
           sodipodi:nodetypes="ccc"
           id="path2242"
           d="M 110,50 C 115.5,57 113,59 115,65 C 109,66 107,69 100,69" />
      </g>
      <path
         style="fill:url(#radialGradient2258);fill-opacity:1;fill-rule:evenodd;stroke:none;stroke-width:1pt;stroke-linecap:butt;stroke-linejoin:miter;stroke-opacity:1"
         sodipodi:nodetypes="cccc"
         id="path2244"
         d="M 75.75,70.3 C 80.75,55.3 135.75,50.3 140.75,70.3 C 125.75,75.3 120.75,80.3 105.75,80.3 C 90.75,80.3 85.75,75.3 75.75,70.3 z " />
      <path
         style="fill:#af6700;stroke:#000000;stroke-width:0.99102402pt;stroke-linejoin:bevel"
         sodipodi:nodetypes="ccsssc"
         id="path2246"
         d="M 110.75,80 L 105.75,80.3 C 105.75,55.3 110.75,35.3 115.75,25.3 C 120.75,15.3 122.75,7.3 130.75,15.3 C 135.75,20.3 123.9,18.98 120.75,25.3 C 115.75,35.3 110.75,50.3 110.75,80 z " />
      <path
         style="fill:none;fill-opacity:1;fill-rule:evenodd;stroke:#000000;stroke-width:0.99102402pt;stroke-linecap:round;stroke-linejoin:round;stroke-opacity:1"
         sodipodi:nodetypes="ccc"
         id="path2248"
         d="M 140.75,70.3 C 130.75,75.3 120.75,80.3 105.75,80.3 C 90.75,80.3 85.75,75.3 75.75,70.3" />
    </g>
    <text
       xml:space="preserve"
       style="font-size:29.61112785px;font-style:normal;font-weight:normal;fill:#000000;fill-opacity:1;stroke:none;stroke-width:1px;stroke-linecap:butt;stroke-linejoin:miter;stroke-opacity:1;font-family:Bitstream Vera Sans"
       x="-0.88197207"
       y="21.610365"
       id="text2250"
       transform="scale(1.080523,0.9254778)"><tspan
         sodipodi:role="line"
         id="tspan2252"
         x="-0.88197207"
         y="21.610365">X</tspan></text>
  </g>
  <g
     transform="translate(4.2713852e-5,60)"
     id="g2386">
    <g
       id="g2388"
       transform="matrix(0.113296,0,0,0.1078491,-1.7159452,-1.2294641)">
      <path
         style="fill:url(#radialGradient2416);stroke:#000000;stroke-width:0.99102402pt"
         sodipodi:nodetypes="ccssss"
         id="path2390"
         d="M 85.75,55.3 C 65.75,60.3 40.75,50.3 35.75,90.3 C 30.75,130.3 65.75,205.3 95.75,195.3 C 110.75,190.3 105.75,190.3 125.75,195.3 C 165.75,205.3 205.75,106.3 185.75,75.3 C 165.75,45.3 125.75,45.3 85.75,55.3 z " />
      <g
         transform="translate(-19.25,-19.7)"
         id="g2392">
        <path
           style="fill:url(#linearGradient2418);stroke:#000000;stroke-width:0.99102402pt"
           sodipodi:nodetypes="cscsc"
           id="path2394"
           d="M 130,80 C 120,50 95,35 70,35 C 60,35 50,35 35,40 C 50,50 60,65 80,65 C 95,65 120,77 130,80 z " />
        <path
           style="fill:none;fill-opacity:0.75;stroke:#000000;stroke-width:0.99102402pt"
           sodipodi:nodetypes="cc"
           id="path2396"
           d="M 35,40 C 70,45 105,50 130,80" />
        <path
           style="fill:none;fill-opacity:0.75;stroke:#000000;stroke-width:0.61939001"
           sodipodi:nodetypes="ccc"
           id="path2398"
           d="M 55,35.15 C 59,36.15 62,41 65,45 C 60,51 55.5,50 48.3,50.15" />
        <path
           style="fill:none;fill-opacity:0.75;stroke:#000000;stroke-width:0.61939001"
           sodipodi:nodetypes="ccc"
           id="path2400"
           d="M 72,35 C 80,39 82,43 85,50 C 82,54 75.25,60.125 64.25,61.125" />
        <path
           style="fill:none;fill-opacity:0.75;stroke:#000000;stroke-width:0.61939001"
           sodipodi:nodetypes="ccc"
           id="path2402"
           d="M 92,39 C 97,43 101.5,52.5 102.5,57.5 C 97.5,60.5 90,65 80,65" />
        <path
           style="fill:none;fill-opacity:0.75;stroke:#000000;stroke-width:0.61939001"
           sodipodi:nodetypes="ccc"
           id="path2404"
           d="M 110,50 C 115.5,57 113,59 115,65 C 109,66 107,69 100,69" />
      </g>
      <path
         style="fill:url(#radialGradient2420);fill-opacity:1;fill-rule:evenodd;stroke:none;stroke-width:1pt;stroke-linecap:butt;stroke-linejoin:miter;stroke-opacity:1"
         sodipodi:nodetypes="cccc"
         id="path2406"
         d="M 75.75,70.3 C 80.75,55.3 135.75,50.3 140.75,70.3 C 125.75,75.3 120.75,80.3 105.75,80.3 C 90.75,80.3 85.75,75.3 75.75,70.3 z " />
      <path
         style="fill:#af6700;stroke:#000000;stroke-width:0.99102402pt;stroke-linejoin:bevel"
         sodipodi:nodetypes="ccsssc"
         id="path2408"
         d="M 110.75,80 L 105.75,80.3 C 105.75,55.3 110.75,35.3 115.75,25.3 C 120.75,15.3 122.75,7.3 130.75,15.3 C 135.75,20.3 123.9,18.98 120.75,25.3 C 115.75,35.3 110.75,50.3 110.75,80 z " />
      <path
         style="fill:none;fill-opacity:1;fill-rule:evenodd;stroke:#000000;stroke-width:0.99102402pt;stroke-linecap:round;stroke-linejoin:round;stroke-opacity:1"
         sodipodi:nodetypes="ccc"
         id="path2410"
         d="M 140.75,70.3 C 130.75,75.3 120.75,80.3 105.75,80.3 C 90.75,80.3 85.75,75.3 75.75,70.3" />
    </g>
    <text
       xml:space="preserve"
       style="font-size:29.61112785px;font-style:normal;font-weight:normal;fill:#000000;fill-opacity:1;stroke:none;stroke-width:1px;stroke-linecap:butt;stroke-linejoin:miter;stroke-opacity:1;font-family:Bitstream Vera Sans"
       x="-0.88197207"
       y="21.610365"
       id="text2412"
       transform="scale(1.080523,0.9254778)"><tspan
         sodipodi:role="line"
         id="tspan2414"
         x="-0.88197207"
         y="21.610365">X</tspan></text>
  </g>
  <g
     id="g2187"
     transform="translate(4.2713852e-5,140)">
    <g
       transform="matrix(0.113296,0,0,0.1078491,-1.7159452,-1.2294641)"
       id="g1329">
      <path
         d="M 85.75,55.3 C 65.75,60.3 40.75,50.3 35.75,90.3 C 30.75,130.3 65.75,205.3 95.75,195.3 C 110.75,190.3 105.75,190.3 125.75,195.3 C 165.75,205.3 205.75,106.3 185.75,75.3 C 165.75,45.3 125.75,45.3 85.75,55.3 z "
         id="path825"
         sodipodi:nodetypes="ccssss"
         style="fill:url(#radialGradient2239);stroke:#000000;stroke-width:0.99102402pt" />
      <g
         id="g863"
         transform="translate(-19.25,-19.7)">
        <path
           d="M 130,80 C 120,50 95,35 70,35 C 60,35 50,35 35,40 C 50,50 60,65 80,65 C 95,65 120,77 130,80 z "
           id="path842"
           sodipodi:nodetypes="cscsc"
           style="fill:url(#linearGradient2241);stroke:#000000;stroke-width:0.99102402pt" />
        <path
           d="M 35,40 C 70,45 105,50 130,80"
           id="path847"
           sodipodi:nodetypes="cc"
           style="fill:none;fill-opacity:0.75;stroke:#000000;stroke-width:0.99102402pt" />
        <path
           d="M 55,35.15 C 59,36.15 62,41 65,45 C 60,51 55.5,50 48.3,50.15"
           id="path857"
           sodipodi:nodetypes="ccc"
           style="fill:none;fill-opacity:0.75;stroke:#000000;stroke-width:0.61939001" />
        <path
           d="M 72,35 C 80,39 82,43 85,50 C 82,54 75.25,60.125 64.25,61.125"
           id="path858"
           sodipodi:nodetypes="ccc"
           style="fill:none;fill-opacity:0.75;stroke:#000000;stroke-width:0.61939001" />
        <path
           d="M 92,39 C 97,43 101.5,52.5 102.5,57.5 C 97.5,60.5 90,65 80,65"
           id="path859"
           sodipodi:nodetypes="ccc"
           style="fill:none;fill-opacity:0.75;stroke:#000000;stroke-width:0.61939001" />
        <path
           d="M 110,50 C 115.5,57 113,59 115,65 C 109,66 107,69 100,69"
           id="path862"
           sodipodi:nodetypes="ccc"
           style="fill:none;fill-opacity:0.75;stroke:#000000;stroke-width:0.61939001" />
      </g>
      <path
         d="M 75.75,70.3 C 80.75,55.3 135.75,50.3 140.75,70.3 C 125.75,75.3 120.75,80.3 105.75,80.3 C 90.75,80.3 85.75,75.3 75.75,70.3 z "
         id="path852"
         sodipodi:nodetypes="cccc"
         style="fill:url(#radialGradient2243);fill-opacity:1;fill-rule:evenodd;stroke:none;stroke-width:1pt;stroke-linecap:butt;stroke-linejoin:miter;stroke-opacity:1" />
      <path
         d="M 110.75,80 L 105.75,80.3 C 105.75,55.3 110.75,35.3 115.75,25.3 C 120.75,15.3 122.75,7.3 130.75,15.3 C 135.75,20.3 123.9,18.98 120.75,25.3 C 115.75,35.3 110.75,50.3 110.75,80 z "
         id="path841"
         sodipodi:nodetypes="ccsssc"
         style="fill:#af6700;stroke:#000000;stroke-width:0.99102402pt;stroke-linejoin:bevel" />
      <path
         d="M 140.75,70.3 C 130.75,75.3 120.75,80.3 105.75,80.3 C 90.75,80.3 85.75,75.3 75.75,70.3"
         id="path854"
         sodipodi:nodetypes="ccc"
         style="fill:none;fill-opacity:1;fill-rule:evenodd;stroke:#000000;stroke-width:0.99102402pt;stroke-linecap:round;stroke-linejoin:round;stroke-opacity:1" />
    </g>
    <text
       transform="scale(1.080523,0.9254778)"
       id="text2185"
       y="21.610365"
       x="-0.88197207"
       style="font-size:29.61112785px;font-style:normal;font-weight:normal;fill:#000000;fill-opacity:1;stroke:none;stroke-width:1px;stroke-linecap:butt;stroke-linejoin:miter;stroke-opacity:1;font-family:Bitstream Vera Sans"
       xml:space="preserve"><tspan
         y="21.610365"
         x="-0.88197207"
         id="tspan2187"
         sodipodi:role="line">X</tspan></text>
  </g>
</svg>
