<?xml version="1.0" encoding="UTF-8" standalone="no"?>
<!-- Created with Inkscape (http://www.inkscape.org/) -->
<svg
   xmlns:i="http://ns.adobe.com/AdobeIllustrator/10.0/"
   xmlns:dc="http://purl.org/dc/elements/1.1/"
   xmlns:cc="http://web.resource.org/cc/"
   xmlns:rdf="http://www.w3.org/1999/02/22-rdf-syntax-ns#"
   xmlns:svg="http://www.w3.org/2000/svg"
   xmlns="http://www.w3.org/2000/svg"
   xmlns:sodipodi="http://sodipodi.sourceforge.net/DTD/sodipodi-0.dtd"
   xmlns:inkscape="http://www.inkscape.org/namespaces/inkscape"
   width="629.21942"
   height="307.18768"
   id="svg3960"
   sodipodi:version="0.32"
   inkscape:version="0.45.1"
   version="1.0"
   sodipodi:docbase="/home/smueller/Projects/pebl/battery/donkey/svg"
   sodipodi:docname="doors.svg"
   inkscape:output_extension="org.inkscape.output.svg.inkscape">
  <defs
     id="defs3962" />
  <sodipodi:namedview
     id="base"
     pagecolor="#ffffff"
     bordercolor="#666666"
     borderopacity="1.0"
     inkscape:pageopacity="0.0"
     inkscape:pageshadow="2"
     inkscape:zoom="0.6"
     inkscape:cx="154.1829"
     inkscape:cy="421.33498"
     inkscape:current-layer="layer1"
     inkscape:document-units="px"
     inkscape:window-width="874"
     inkscape:window-height="626"
     inkscape:window-x="160"
     inkscape:window-y="75" />
  <metadata
     id="metadata3965">
    <rdf:RDF>
      <cc:Work
         rdf:about="">
        <dc:format>image/svg+xml</dc:format>
        <dc:type
           rdf:resource="http://purl.org/dc/dcmitype/StillImage" />
      </cc:Work>
    </rdf:RDF>
  </metadata>
  <g
     id="layer1"
     inkscape:label="Layer 1"
     inkscape:groupmode="layer"
     transform="translate(-145.72361,-90.572833)">
    <g
       inkscape:tile-cy="51.598295"
       inkscape:tile-cx="31.570552"
       inkscape:tile-h="93.411129"
       inkscape:tile-w="51.064381"
       transform="matrix(2.8179976,0.4663274,0,3.367354,111.70495,-99.073688)"
       id="g3856">
      <g
         transform="matrix(0.5388933,-7.4628534e-2,0,0.9568864,8.0660253,6.1703461)"
         id="g3858">
        <path
           style="fill-rule:evenodd;stroke:#000000;stroke-width:0.01966765;stroke-miterlimit:10"
           id="path3860"
           stroke-miterlimit="10"
           i:knockout="Off"
           d="M 57.406727,51.260363 L 11.884727,51.260363 C 9.4487267,51.260363 7.4747267,53.146363 7.4747267,55.472363 L 7.4747267,140.46836 C 7.4747267,142.79436 9.4497267,144.68036 11.884727,144.68036 L 102.92873,144.68036 C 105.36473,144.68036 107.33873,142.79436 107.33873,140.46836 L 107.33873,55.472363 C 107.33873,53.146363 105.36373,51.260363 102.92873,51.260363 L 57.406727,51.260363 z "
           clip-rule="evenodd" />
        <path
           style="fill:#cf341a;fill-rule:evenodd;stroke:#f90f1b;stroke-width:0.01966765;stroke-miterlimit:10"
           id="path3862"
           stroke-miterlimit="10"
           i:knockout="Off"
           d="M 57.406727,52.484363 L 13.702727,52.484363 C 11.356727,52.484363 9.4547267,54.305363 9.4547267,56.551363 L 9.4547267,138.88336 C 9.4547267,141.13036 11.356727,142.95136 13.702727,142.95136 L 101.11073,142.95136 C 103.45673,142.95136 105.35873,141.13036 105.35873,138.88336 L 105.35873,56.552363 C 105.35873,54.306363 103.45673,52.485363 101.11073,52.485363 L 57.406727,52.485363 L 57.406727,52.484363 z "
           clip-rule="evenodd" />
        <path
           style="fill-rule:evenodd;stroke:#000000;stroke-width:0.01966765;stroke-miterlimit:10"
           id="path3864"
           stroke-miterlimit="10"
           i:knockout="Off"
           d="M 57.280727,54.716363 L 15.844727,54.716363 C 13.548727,54.716363 11.686727,56.577363 11.686727,58.874363 L 11.686727,137.06636 C 11.686727,139.36236 13.547727,141.22336 15.844727,141.22336 L 98.716727,141.22336 C 101.01373,141.22336 102.87473,139.36236 102.87473,137.06636 L 102.87473,58.874363 C 102.87473,56.577363 101.01373,54.716363 98.716727,54.716363 L 57.280727,54.716363 z "
           clip-rule="evenodd" />
      </g>
      <path
         style="fill:#b0722e;fill-rule:evenodd;stroke:#000000;stroke-width:0.01412323;stroke-miterlimit:10"
         id="path3866"
         stroke-miterlimit="10"
         i:knockout="Off"
         d="M 35.914727,56.479363 L 19.336727,56.479363 C 17.040727,56.479363 15.178727,58.349363 15.178727,60.656363 L 15.178727,136.04036 C 15.178727,138.34736 17.040727,140.21636 19.336727,140.21636 L 52.492727,140.21636 C 54.788727,140.21636 56.650727,138.34736 56.650727,136.04036 L 56.650727,60.656363 C 56.650727,58.349363 54.788727,56.479363 52.492727,56.479363 L 35.914727,56.479363 z "
         clip-rule="evenodd" />
      <path
         style="fill-rule:evenodd;stroke:#000000;stroke-width:0.01412323;stroke-miterlimit:10"
         id="path3868"
         stroke-miterlimit="10"
         i:knockout="Off"
         d="M 36.418727,98.960363 L 24.052727,98.960363 C 21.756727,98.960363 19.894727,100.82136 19.894727,103.11836 L 19.894727,113.19836 C 19.894727,115.49436 21.755727,117.35636 24.052727,117.35636 L 48.784727,117.35636 C 51.080727,117.35636 52.942727,115.49436 52.942727,113.19836 L 52.942727,103.11836 C 52.942727,100.82136 51.080727,98.960363 48.784727,98.960363 L 36.418727,98.960363 z "
         clip-rule="evenodd" />
      <path
         style="fill:#b0722e;fill-rule:evenodd;stroke:#000000;stroke-width:0.01412323;stroke-miterlimit:10"
         id="path3870"
         stroke-miterlimit="10"
         i:knockout="Off"
         d="M 36.166727,100.22036 L 24.898727,100.22036 C 22.810727,100.22036 21.118727,101.80836 21.118727,103.76636 L 21.118727,112.33436 C 21.118727,114.29236 22.810727,115.88036 24.898727,115.88036 L 47.434727,115.88036 C 49.522727,115.88036 51.214727,114.29236 51.214727,112.33436 L 51.214727,103.76636 C 51.214727,101.80836 49.522727,100.22036 47.434727,100.22036 L 36.166727,100.22036 z "
         clip-rule="evenodd" />
      <path
         style="fill-rule:evenodd;stroke:#000000;stroke-width:0.01412323;stroke-miterlimit:10"
         id="path3872"
         stroke-miterlimit="10"
         i:knockout="Off"
         d="M 36.418727,120.09236 L 24.052727,120.09236 C 21.756727,120.09236 19.894727,121.95336 19.894727,124.25036 L 19.894727,134.33036 C 19.894727,136.62636 21.755727,138.48836 24.052727,138.48836 L 48.784727,138.48836 C 51.080727,138.48836 52.942727,136.62636 52.942727,134.33036 L 52.942727,124.25036 C 52.942727,121.95336 51.080727,120.09236 48.784727,120.09236 L 36.418727,120.09236 z "
         clip-rule="evenodd" />
      <path
         style="fill-rule:evenodd;stroke:#000000;stroke-width:0.01412323;stroke-miterlimit:10"
         id="path3874"
         stroke-miterlimit="10"
         i:knockout="Off"
         d="M 20.614727,95.252363 C 20.326727,89.708363 20.326727,84.704363 20.614727,79.844363 C 20.758727,74.985363 20.470727,69.908363 22.126727,66.416363 C 23.710727,62.744363 27.094727,60.080363 30.334727,58.712363 C 33.430727,57.380363 38.002727,57.560363 40.990727,58.712363 C 43.906727,59.720363 46.102727,61.592363 47.722727,65.156363 C 49.198727,68.683363 50.062727,74.696363 50.458727,79.844363 C 50.854727,84.920363 50.818727,89.924363 50.206727,95.252363 C 40.342727,95.252363 30.478727,95.252363 20.614727,95.252363 z "
         clip-rule="evenodd" />
      <g
         id="g3876">
        <path
           clip-rule="evenodd"
           d="M 36.166727,121.31636 L 24.898727,121.31636 C 22.810727,121.31636 21.118727,122.90336 21.118727,124.86236 L 21.118727,133.42936 C 21.118727,135.38836 22.810727,136.97536 24.898727,136.97536 L 47.434727,136.97536 C 49.522727,136.97536 51.214727,135.38836 51.214727,133.42936 L 51.214727,124.86236 C 51.214727,122.90336 49.522727,121.31636 47.434727,121.31636 L 36.166727,121.31636 z "
           i:knockout="Off"
           stroke-miterlimit="10"
           id="path3878"
           style="fill:#b0722e;fill-rule:evenodd;stroke:#000000;stroke-width:0.01412323;stroke-miterlimit:10" />
        <path
           clip-rule="evenodd"
           d="M 22.630727,92.767363 C 22.342727,86.539363 22.342727,81.499363 22.630727,77.360363 C 22.774727,73.183363 22.846727,70.807363 24.106727,68.143363 C 25.366727,65.299363 27.490727,62.204363 30.334727,60.944363 C 33.214727,59.719363 38.290727,59.900363 40.990727,60.944363 C 43.510727,61.880363 44.230727,64.147363 45.490727,66.920363 C 46.714727,69.620363 47.722727,73.004363 48.226727,77.360363 C 48.622727,81.715363 48.586727,86.756363 47.974727,92.767363 C 39.550727,92.767363 31.090727,92.767363 22.630727,92.767363 z "
           i:knockout="Off"
           stroke-miterlimit="10"
           id="path3880"
           style="fill:#b0722e;fill-rule:evenodd;stroke:#000000;stroke-width:0.01412323;stroke-miterlimit:10" />
      </g>
    </g>
    <g
       inkscape:tile-cy="51.598295"
       inkscape:tile-cx="31.570552"
       inkscape:tile-h="93.411129"
       inkscape:tile-w="51.064381"
       transform="matrix(2.8179976,0.4663274,0,3.367354,270.85194,-99.073688)"
       id="g3882">
      <g
         transform="matrix(0.5388933,-7.4628534e-2,0,0.9568864,8.0660253,6.1703461)"
         id="g3884">
        <path
           style="fill-rule:evenodd;stroke:#000000;stroke-width:0.01966765;stroke-miterlimit:10"
           id="path3886"
           stroke-miterlimit="10"
           i:knockout="Off"
           d="M 57.406727,51.260363 L 11.884727,51.260363 C 9.4487267,51.260363 7.4747267,53.146363 7.4747267,55.472363 L 7.4747267,140.46836 C 7.4747267,142.79436 9.4497267,144.68036 11.884727,144.68036 L 102.92873,144.68036 C 105.36473,144.68036 107.33873,142.79436 107.33873,140.46836 L 107.33873,55.472363 C 107.33873,53.146363 105.36373,51.260363 102.92873,51.260363 L 57.406727,51.260363 z "
           clip-rule="evenodd" />
        <path
           style="fill:#cf341a;fill-rule:evenodd;stroke:#f90f1b;stroke-width:0.01966765;stroke-miterlimit:10"
           id="path3888"
           stroke-miterlimit="10"
           i:knockout="Off"
           d="M 57.406727,52.484363 L 13.702727,52.484363 C 11.356727,52.484363 9.4547267,54.305363 9.4547267,56.551363 L 9.4547267,138.88336 C 9.4547267,141.13036 11.356727,142.95136 13.702727,142.95136 L 101.11073,142.95136 C 103.45673,142.95136 105.35873,141.13036 105.35873,138.88336 L 105.35873,56.552363 C 105.35873,54.306363 103.45673,52.485363 101.11073,52.485363 L 57.406727,52.485363 L 57.406727,52.484363 z "
           clip-rule="evenodd" />
        <path
           style="fill-rule:evenodd;stroke:#000000;stroke-width:0.01966765;stroke-miterlimit:10"
           id="path3890"
           stroke-miterlimit="10"
           i:knockout="Off"
           d="M 57.280727,54.716363 L 15.844727,54.716363 C 13.548727,54.716363 11.686727,56.577363 11.686727,58.874363 L 11.686727,137.06636 C 11.686727,139.36236 13.547727,141.22336 15.844727,141.22336 L 98.716727,141.22336 C 101.01373,141.22336 102.87473,139.36236 102.87473,137.06636 L 102.87473,58.874363 C 102.87473,56.577363 101.01373,54.716363 98.716727,54.716363 L 57.280727,54.716363 z "
           clip-rule="evenodd" />
      </g>
      <path
         style="fill:#b0722e;fill-rule:evenodd;stroke:#000000;stroke-width:0.01412323;stroke-miterlimit:10"
         id="path3892"
         stroke-miterlimit="10"
         i:knockout="Off"
         d="M 35.914727,56.479363 L 19.336727,56.479363 C 17.040727,56.479363 15.178727,58.349363 15.178727,60.656363 L 15.178727,136.04036 C 15.178727,138.34736 17.040727,140.21636 19.336727,140.21636 L 52.492727,140.21636 C 54.788727,140.21636 56.650727,138.34736 56.650727,136.04036 L 56.650727,60.656363 C 56.650727,58.349363 54.788727,56.479363 52.492727,56.479363 L 35.914727,56.479363 z "
         clip-rule="evenodd" />
      <path
         style="fill-rule:evenodd;stroke:#000000;stroke-width:0.01412323;stroke-miterlimit:10"
         id="path3894"
         stroke-miterlimit="10"
         i:knockout="Off"
         d="M 36.418727,98.960363 L 24.052727,98.960363 C 21.756727,98.960363 19.894727,100.82136 19.894727,103.11836 L 19.894727,113.19836 C 19.894727,115.49436 21.755727,117.35636 24.052727,117.35636 L 48.784727,117.35636 C 51.080727,117.35636 52.942727,115.49436 52.942727,113.19836 L 52.942727,103.11836 C 52.942727,100.82136 51.080727,98.960363 48.784727,98.960363 L 36.418727,98.960363 z "
         clip-rule="evenodd" />
      <path
         style="fill:#b0722e;fill-rule:evenodd;stroke:#000000;stroke-width:0.01412323;stroke-miterlimit:10"
         id="path3896"
         stroke-miterlimit="10"
         i:knockout="Off"
         d="M 36.166727,100.22036 L 24.898727,100.22036 C 22.810727,100.22036 21.118727,101.80836 21.118727,103.76636 L 21.118727,112.33436 C 21.118727,114.29236 22.810727,115.88036 24.898727,115.88036 L 47.434727,115.88036 C 49.522727,115.88036 51.214727,114.29236 51.214727,112.33436 L 51.214727,103.76636 C 51.214727,101.80836 49.522727,100.22036 47.434727,100.22036 L 36.166727,100.22036 z "
         clip-rule="evenodd" />
      <path
         style="fill-rule:evenodd;stroke:#000000;stroke-width:0.01412323;stroke-miterlimit:10"
         id="path3898"
         stroke-miterlimit="10"
         i:knockout="Off"
         d="M 36.418727,120.09236 L 24.052727,120.09236 C 21.756727,120.09236 19.894727,121.95336 19.894727,124.25036 L 19.894727,134.33036 C 19.894727,136.62636 21.755727,138.48836 24.052727,138.48836 L 48.784727,138.48836 C 51.080727,138.48836 52.942727,136.62636 52.942727,134.33036 L 52.942727,124.25036 C 52.942727,121.95336 51.080727,120.09236 48.784727,120.09236 L 36.418727,120.09236 z "
         clip-rule="evenodd" />
      <path
         style="fill-rule:evenodd;stroke:#000000;stroke-width:0.01412323;stroke-miterlimit:10"
         id="path3900"
         stroke-miterlimit="10"
         i:knockout="Off"
         d="M 20.614727,95.252363 C 20.326727,89.708363 20.326727,84.704363 20.614727,79.844363 C 20.758727,74.985363 20.470727,69.908363 22.126727,66.416363 C 23.710727,62.744363 27.094727,60.080363 30.334727,58.712363 C 33.430727,57.380363 38.002727,57.560363 40.990727,58.712363 C 43.906727,59.720363 46.102727,61.592363 47.722727,65.156363 C 49.198727,68.683363 50.062727,74.696363 50.458727,79.844363 C 50.854727,84.920363 50.818727,89.924363 50.206727,95.252363 C 40.342727,95.252363 30.478727,95.252363 20.614727,95.252363 z "
         clip-rule="evenodd" />
      <g
         id="g3902">
        <path
           clip-rule="evenodd"
           d="M 36.166727,121.31636 L 24.898727,121.31636 C 22.810727,121.31636 21.118727,122.90336 21.118727,124.86236 L 21.118727,133.42936 C 21.118727,135.38836 22.810727,136.97536 24.898727,136.97536 L 47.434727,136.97536 C 49.522727,136.97536 51.214727,135.38836 51.214727,133.42936 L 51.214727,124.86236 C 51.214727,122.90336 49.522727,121.31636 47.434727,121.31636 L 36.166727,121.31636 z "
           i:knockout="Off"
           stroke-miterlimit="10"
           id="path3904"
           style="fill:#b0722e;fill-rule:evenodd;stroke:#000000;stroke-width:0.01412323;stroke-miterlimit:10" />
        <path
           clip-rule="evenodd"
           d="M 22.630727,92.767363 C 22.342727,86.539363 22.342727,81.499363 22.630727,77.360363 C 22.774727,73.183363 22.846727,70.807363 24.106727,68.143363 C 25.366727,65.299363 27.490727,62.204363 30.334727,60.944363 C 33.214727,59.719363 38.290727,59.900363 40.990727,60.944363 C 43.510727,61.880363 44.230727,64.147363 45.490727,66.920363 C 46.714727,69.620363 47.722727,73.004363 48.226727,77.360363 C 48.622727,81.715363 48.586727,86.756363 47.974727,92.767363 C 39.550727,92.767363 31.090727,92.767363 22.630727,92.767363 z "
           i:knockout="Off"
           stroke-miterlimit="10"
           id="path3906"
           style="fill:#b0722e;fill-rule:evenodd;stroke:#000000;stroke-width:0.01412323;stroke-miterlimit:10" />
      </g>
    </g>
    <g
       inkscape:tile-cy="51.598295"
       inkscape:tile-cx="31.570552"
       inkscape:tile-h="93.411129"
       inkscape:tile-w="51.064381"
       transform="matrix(2.8179976,0.4663274,0,3.367354,429.99891,-99.073688)"
       id="g3908">
      <g
         transform="matrix(0.5388933,-7.4628534e-2,0,0.9568864,8.0660253,6.1703461)"
         id="g3910">
        <path
           style="fill-rule:evenodd;stroke:#000000;stroke-width:0.01966765;stroke-miterlimit:10"
           id="path3912"
           stroke-miterlimit="10"
           i:knockout="Off"
           d="M 57.406727,51.260363 L 11.884727,51.260363 C 9.4487267,51.260363 7.4747267,53.146363 7.4747267,55.472363 L 7.4747267,140.46836 C 7.4747267,142.79436 9.4497267,144.68036 11.884727,144.68036 L 102.92873,144.68036 C 105.36473,144.68036 107.33873,142.79436 107.33873,140.46836 L 107.33873,55.472363 C 107.33873,53.146363 105.36373,51.260363 102.92873,51.260363 L 57.406727,51.260363 z "
           clip-rule="evenodd" />
        <path
           style="fill:#cf341a;fill-rule:evenodd;stroke:#f90f1b;stroke-width:0.01966765;stroke-miterlimit:10"
           id="path3914"
           stroke-miterlimit="10"
           i:knockout="Off"
           d="M 57.406727,52.484363 L 13.702727,52.484363 C 11.356727,52.484363 9.4547267,54.305363 9.4547267,56.551363 L 9.4547267,138.88336 C 9.4547267,141.13036 11.356727,142.95136 13.702727,142.95136 L 101.11073,142.95136 C 103.45673,142.95136 105.35873,141.13036 105.35873,138.88336 L 105.35873,56.552363 C 105.35873,54.306363 103.45673,52.485363 101.11073,52.485363 L 57.406727,52.485363 L 57.406727,52.484363 z "
           clip-rule="evenodd" />
        <path
           style="fill-rule:evenodd;stroke:#000000;stroke-width:0.01966765;stroke-miterlimit:10"
           id="path3916"
           stroke-miterlimit="10"
           i:knockout="Off"
           d="M 57.280727,54.716363 L 15.844727,54.716363 C 13.548727,54.716363 11.686727,56.577363 11.686727,58.874363 L 11.686727,137.06636 C 11.686727,139.36236 13.547727,141.22336 15.844727,141.22336 L 98.716727,141.22336 C 101.01373,141.22336 102.87473,139.36236 102.87473,137.06636 L 102.87473,58.874363 C 102.87473,56.577363 101.01373,54.716363 98.716727,54.716363 L 57.280727,54.716363 z "
           clip-rule="evenodd" />
      </g>
      <path
         style="fill:#b0722e;fill-rule:evenodd;stroke:#000000;stroke-width:0.01412323;stroke-miterlimit:10"
         id="path3918"
         stroke-miterlimit="10"
         i:knockout="Off"
         d="M 35.914727,56.479363 L 19.336727,56.479363 C 17.040727,56.479363 15.178727,58.349363 15.178727,60.656363 L 15.178727,136.04036 C 15.178727,138.34736 17.040727,140.21636 19.336727,140.21636 L 52.492727,140.21636 C 54.788727,140.21636 56.650727,138.34736 56.650727,136.04036 L 56.650727,60.656363 C 56.650727,58.349363 54.788727,56.479363 52.492727,56.479363 L 35.914727,56.479363 z "
         clip-rule="evenodd" />
      <path
         style="fill-rule:evenodd;stroke:#000000;stroke-width:0.01412323;stroke-miterlimit:10"
         id="path3920"
         stroke-miterlimit="10"
         i:knockout="Off"
         d="M 36.418727,98.960363 L 24.052727,98.960363 C 21.756727,98.960363 19.894727,100.82136 19.894727,103.11836 L 19.894727,113.19836 C 19.894727,115.49436 21.755727,117.35636 24.052727,117.35636 L 48.784727,117.35636 C 51.080727,117.35636 52.942727,115.49436 52.942727,113.19836 L 52.942727,103.11836 C 52.942727,100.82136 51.080727,98.960363 48.784727,98.960363 L 36.418727,98.960363 z "
         clip-rule="evenodd" />
      <path
         style="fill:#b0722e;fill-rule:evenodd;stroke:#000000;stroke-width:0.01412323;stroke-miterlimit:10"
         id="path3922"
         stroke-miterlimit="10"
         i:knockout="Off"
         d="M 36.166727,100.22036 L 24.898727,100.22036 C 22.810727,100.22036 21.118727,101.80836 21.118727,103.76636 L 21.118727,112.33436 C 21.118727,114.29236 22.810727,115.88036 24.898727,115.88036 L 47.434727,115.88036 C 49.522727,115.88036 51.214727,114.29236 51.214727,112.33436 L 51.214727,103.76636 C 51.214727,101.80836 49.522727,100.22036 47.434727,100.22036 L 36.166727,100.22036 z "
         clip-rule="evenodd" />
      <path
         style="fill-rule:evenodd;stroke:#000000;stroke-width:0.01412323;stroke-miterlimit:10"
         id="path3924"
         stroke-miterlimit="10"
         i:knockout="Off"
         d="M 36.418727,120.09236 L 24.052727,120.09236 C 21.756727,120.09236 19.894727,121.95336 19.894727,124.25036 L 19.894727,134.33036 C 19.894727,136.62636 21.755727,138.48836 24.052727,138.48836 L 48.784727,138.48836 C 51.080727,138.48836 52.942727,136.62636 52.942727,134.33036 L 52.942727,124.25036 C 52.942727,121.95336 51.080727,120.09236 48.784727,120.09236 L 36.418727,120.09236 z "
         clip-rule="evenodd" />
      <path
         style="fill-rule:evenodd;stroke:#000000;stroke-width:0.01412323;stroke-miterlimit:10"
         id="path3926"
         stroke-miterlimit="10"
         i:knockout="Off"
         d="M 20.614727,95.252363 C 20.326727,89.708363 20.326727,84.704363 20.614727,79.844363 C 20.758727,74.985363 20.470727,69.908363 22.126727,66.416363 C 23.710727,62.744363 27.094727,60.080363 30.334727,58.712363 C 33.430727,57.380363 38.002727,57.560363 40.990727,58.712363 C 43.906727,59.720363 46.102727,61.592363 47.722727,65.156363 C 49.198727,68.683363 50.062727,74.696363 50.458727,79.844363 C 50.854727,84.920363 50.818727,89.924363 50.206727,95.252363 C 40.342727,95.252363 30.478727,95.252363 20.614727,95.252363 z "
         clip-rule="evenodd" />
      <g
         id="g3928">
        <path
           clip-rule="evenodd"
           d="M 36.166727,121.31636 L 24.898727,121.31636 C 22.810727,121.31636 21.118727,122.90336 21.118727,124.86236 L 21.118727,133.42936 C 21.118727,135.38836 22.810727,136.97536 24.898727,136.97536 L 47.434727,136.97536 C 49.522727,136.97536 51.214727,135.38836 51.214727,133.42936 L 51.214727,124.86236 C 51.214727,122.90336 49.522727,121.31636 47.434727,121.31636 L 36.166727,121.31636 z "
           i:knockout="Off"
           stroke-miterlimit="10"
           id="path3930"
           style="fill:#b0722e;fill-rule:evenodd;stroke:#000000;stroke-width:0.01412323;stroke-miterlimit:10" />
        <path
           clip-rule="evenodd"
           d="M 22.630727,92.767363 C 22.342727,86.539363 22.342727,81.499363 22.630727,77.360363 C 22.774727,73.183363 22.846727,70.807363 24.106727,68.143363 C 25.366727,65.299363 27.490727,62.204363 30.334727,60.944363 C 33.214727,59.719363 38.290727,59.900363 40.990727,60.944363 C 43.510727,61.880363 44.230727,64.147363 45.490727,66.920363 C 46.714727,69.620363 47.722727,73.004363 48.226727,77.360363 C 48.622727,81.715363 48.586727,86.756363 47.974727,92.767363 C 39.550727,92.767363 31.090727,92.767363 22.630727,92.767363 z "
           i:knockout="Off"
           stroke-miterlimit="10"
           id="path3932"
           style="fill:#b0722e;fill-rule:evenodd;stroke:#000000;stroke-width:0.01412323;stroke-miterlimit:10" />
      </g>
    </g>
    <g
       inkscape:tile-cy="51.598295"
       inkscape:tile-cx="31.570552"
       inkscape:tile-h="93.411129"
       inkscape:tile-w="51.064381"
       transform="matrix(2.8179976,0.4663274,0,3.367354,589.14592,-99.073688)"
       id="g3934">
      <g
         transform="matrix(0.5388933,-7.4628534e-2,0,0.9568864,8.0660253,6.1703461)"
         id="g3936">
        <path
           style="fill-rule:evenodd;stroke:#000000;stroke-width:0.01966765;stroke-miterlimit:10"
           id="path3938"
           stroke-miterlimit="10"
           i:knockout="Off"
           d="M 57.406727,51.260363 L 11.884727,51.260363 C 9.4487267,51.260363 7.4747267,53.146363 7.4747267,55.472363 L 7.4747267,140.46836 C 7.4747267,142.79436 9.4497267,144.68036 11.884727,144.68036 L 102.92873,144.68036 C 105.36473,144.68036 107.33873,142.79436 107.33873,140.46836 L 107.33873,55.472363 C 107.33873,53.146363 105.36373,51.260363 102.92873,51.260363 L 57.406727,51.260363 z "
           clip-rule="evenodd" />
        <path
           style="fill:#cf341a;fill-rule:evenodd;stroke:#f90f1b;stroke-width:0.01966765;stroke-miterlimit:10"
           id="path3940"
           stroke-miterlimit="10"
           i:knockout="Off"
           d="M 57.406727,52.484363 L 13.702727,52.484363 C 11.356727,52.484363 9.4547267,54.305363 9.4547267,56.551363 L 9.4547267,138.88336 C 9.4547267,141.13036 11.356727,142.95136 13.702727,142.95136 L 101.11073,142.95136 C 103.45673,142.95136 105.35873,141.13036 105.35873,138.88336 L 105.35873,56.552363 C 105.35873,54.306363 103.45673,52.485363 101.11073,52.485363 L 57.406727,52.485363 L 57.406727,52.484363 z "
           clip-rule="evenodd" />
        <path
           style="fill-rule:evenodd;stroke:#000000;stroke-width:0.01966765;stroke-miterlimit:10"
           id="path3942"
           stroke-miterlimit="10"
           i:knockout="Off"
           d="M 57.280727,54.716363 L 15.844727,54.716363 C 13.548727,54.716363 11.686727,56.577363 11.686727,58.874363 L 11.686727,137.06636 C 11.686727,139.36236 13.547727,141.22336 15.844727,141.22336 L 98.716727,141.22336 C 101.01373,141.22336 102.87473,139.36236 102.87473,137.06636 L 102.87473,58.874363 C 102.87473,56.577363 101.01373,54.716363 98.716727,54.716363 L 57.280727,54.716363 z "
           clip-rule="evenodd" />
      </g>
      <path
         style="fill:#b0722e;fill-rule:evenodd;stroke:#000000;stroke-width:0.01412323;stroke-miterlimit:10"
         id="path3944"
         stroke-miterlimit="10"
         i:knockout="Off"
         d="M 35.914727,56.479363 L 19.336727,56.479363 C 17.040727,56.479363 15.178727,58.349363 15.178727,60.656363 L 15.178727,136.04036 C 15.178727,138.34736 17.040727,140.21636 19.336727,140.21636 L 52.492727,140.21636 C 54.788727,140.21636 56.650727,138.34736 56.650727,136.04036 L 56.650727,60.656363 C 56.650727,58.349363 54.788727,56.479363 52.492727,56.479363 L 35.914727,56.479363 z "
         clip-rule="evenodd" />
      <path
         style="fill-rule:evenodd;stroke:#000000;stroke-width:0.01412323;stroke-miterlimit:10"
         id="path3946"
         stroke-miterlimit="10"
         i:knockout="Off"
         d="M 36.418727,98.960363 L 24.052727,98.960363 C 21.756727,98.960363 19.894727,100.82136 19.894727,103.11836 L 19.894727,113.19836 C 19.894727,115.49436 21.755727,117.35636 24.052727,117.35636 L 48.784727,117.35636 C 51.080727,117.35636 52.942727,115.49436 52.942727,113.19836 L 52.942727,103.11836 C 52.942727,100.82136 51.080727,98.960363 48.784727,98.960363 L 36.418727,98.960363 z "
         clip-rule="evenodd" />
      <path
         style="fill:#b0722e;fill-rule:evenodd;stroke:#000000;stroke-width:0.01412323;stroke-miterlimit:10"
         id="path3948"
         stroke-miterlimit="10"
         i:knockout="Off"
         d="M 36.166727,100.22036 L 24.898727,100.22036 C 22.810727,100.22036 21.118727,101.80836 21.118727,103.76636 L 21.118727,112.33436 C 21.118727,114.29236 22.810727,115.88036 24.898727,115.88036 L 47.434727,115.88036 C 49.522727,115.88036 51.214727,114.29236 51.214727,112.33436 L 51.214727,103.76636 C 51.214727,101.80836 49.522727,100.22036 47.434727,100.22036 L 36.166727,100.22036 z "
         clip-rule="evenodd" />
      <path
         style="fill-rule:evenodd;stroke:#000000;stroke-width:0.01412323;stroke-miterlimit:10"
         id="path3950"
         stroke-miterlimit="10"
         i:knockout="Off"
         d="M 36.418727,120.09236 L 24.052727,120.09236 C 21.756727,120.09236 19.894727,121.95336 19.894727,124.25036 L 19.894727,134.33036 C 19.894727,136.62636 21.755727,138.48836 24.052727,138.48836 L 48.784727,138.48836 C 51.080727,138.48836 52.942727,136.62636 52.942727,134.33036 L 52.942727,124.25036 C 52.942727,121.95336 51.080727,120.09236 48.784727,120.09236 L 36.418727,120.09236 z "
         clip-rule="evenodd" />
      <path
         style="fill-rule:evenodd;stroke:#000000;stroke-width:0.01412323;stroke-miterlimit:10"
         id="path3952"
         stroke-miterlimit="10"
         i:knockout="Off"
         d="M 20.614727,95.252363 C 20.326727,89.708363 20.326727,84.704363 20.614727,79.844363 C 20.758727,74.985363 20.470727,69.908363 22.126727,66.416363 C 23.710727,62.744363 27.094727,60.080363 30.334727,58.712363 C 33.430727,57.380363 38.002727,57.560363 40.990727,58.712363 C 43.906727,59.720363 46.102727,61.592363 47.722727,65.156363 C 49.198727,68.683363 50.062727,74.696363 50.458727,79.844363 C 50.854727,84.920363 50.818727,89.924363 50.206727,95.252363 C 40.342727,95.252363 30.478727,95.252363 20.614727,95.252363 z "
         clip-rule="evenodd" />
      <g
         id="g3954">
        <path
           clip-rule="evenodd"
           d="M 36.166727,121.31636 L 24.898727,121.31636 C 22.810727,121.31636 21.118727,122.90336 21.118727,124.86236 L 21.118727,133.42936 C 21.118727,135.38836 22.810727,136.97536 24.898727,136.97536 L 47.434727,136.97536 C 49.522727,136.97536 51.214727,135.38836 51.214727,133.42936 L 51.214727,124.86236 C 51.214727,122.90336 49.522727,121.31636 47.434727,121.31636 L 36.166727,121.31636 z "
           i:knockout="Off"
           stroke-miterlimit="10"
           id="path3956"
           style="fill:#b0722e;fill-rule:evenodd;stroke:#000000;stroke-width:0.01412323;stroke-miterlimit:10" />
        <path
           clip-rule="evenodd"
           d="M 22.630727,92.767363 C 22.342727,86.539363 22.342727,81.499363 22.630727,77.360363 C 22.774727,73.183363 22.846727,70.807363 24.106727,68.143363 C 25.366727,65.299363 27.490727,62.204363 30.334727,60.944363 C 33.214727,59.719363 38.290727,59.900363 40.990727,60.944363 C 43.510727,61.880363 44.230727,64.147363 45.490727,66.920363 C 46.714727,69.620363 47.722727,73.004363 48.226727,77.360363 C 48.622727,81.715363 48.586727,86.756363 47.974727,92.767363 C 39.550727,92.767363 31.090727,92.767363 22.630727,92.767363 z "
           i:knockout="Off"
           stroke-miterlimit="10"
           id="path3958"
           style="fill:#b0722e;fill-rule:evenodd;stroke:#000000;stroke-width:0.01412323;stroke-miterlimit:10" />
      </g>
    </g>
  </g>
</svg>
