<?xml version="1.0" encoding="UTF-8" standalone="no"?>
<!-- Created with Inkscape (http://www.inkscape.org/) -->
<svg
   xmlns:i="http://ns.adobe.com/AdobeIllustrator/10.0/"
   xmlns:dc="http://purl.org/dc/elements/1.1/"
   xmlns:cc="http://web.resource.org/cc/"
   xmlns:rdf="http://www.w3.org/1999/02/22-rdf-syntax-ns#"
   xmlns:svg="http://www.w3.org/2000/svg"
   xmlns="http://www.w3.org/2000/svg"
   xmlns:sodipodi="http://sodipodi.sourceforge.net/DTD/sodipodi-0.dtd"
   xmlns:inkscape="http://www.inkscape.org/namespaces/inkscape"
   width="130"
   height="307.18768"
   id="svg3960"
   sodipodi:version="0.32"
   inkscape:version="0.45.1"
   version="1.0"
   sodipodi:docbase="/home/smueller/Projects/pebl/battery/donkey/svg"
   sodipodi:docname="door.svg"
   inkscape:output_extension="org.inkscape.output.svg.inkscape">
  <defs
     id="defs3962" />
  <sodipodi:namedview
     id="base"
     pagecolor="#ffffff"
     bordercolor="#666666"
     borderopacity="1.0"
     inkscape:pageopacity="0.0"
     inkscape:pageshadow="2"
     inkscape:zoom="0.6"
     inkscape:cx="154.1829"
     inkscape:cy="227.2699"
     inkscape:current-layer="layer1"
     inkscape:document-units="px"
     inkscape:window-width="874"
     inkscape:window-height="626"
     inkscape:window-x="160"
     inkscape:window-y="75"
     width="130px"
     height="307.18768px" />
  <metadata
     id="metadata3965">
    <rdf:RDF>
      <cc:Work
         rdf:about="">
        <dc:format>image/svg+xml</dc:format>
        <dc:type
           rdf:resource="http://purl.org/dc/dcmitype/StillImage" />
      </cc:Work>
    </rdf:RDF>
  </metadata>
  <g
     id="layer1"
     inkscape:label="Layer 1"
     inkscape:groupmode="layer"
     transform="translate(-145.72361,-90.572833)">
    <path
       clip-rule="evenodd"
       d="M 212.91256,107.86034 L 166.1958,100.12957 C 159.72568,99.058879 154.47857,104.48753 154.47857,112.25601 L 154.47857,366.10062 C 154.47857,373.8691 159.72568,381.03099 166.1958,382.10168 L 259.62933,397.56323 C 266.09945,398.63392 271.34656,393.20863 271.34656,385.44015 L 271.34656,131.59554 C 271.34656,123.82706 266.09945,116.66181 259.62933,115.59112 L 212.91256,107.86034 z "
       i:knockout="Off"
       stroke-miterlimit="10"
       id="path3866"
       style="fill:#b0722e;fill-rule:evenodd;stroke:#000000;stroke-width:0.04350596;stroke-miterlimit:10" />
    <path
       clip-rule="evenodd"
       d="M 214.33284,251.14394 L 179.48548,245.37733 C 173.01535,244.30664 167.76824,249.70498 167.76824,257.43979 L 167.76824,291.38272 C 167.76824,299.11416 173.01254,306.25201 179.48548,307.32317 L 249.18019,318.85638 C 255.65032,319.92706 260.89743,314.52535 260.89743,306.79391 L 260.89743,272.85098 C 260.89743,265.11617 255.65032,257.98123 249.18019,256.91054 L 214.33284,251.14394 z "
       i:knockout="Off"
       stroke-miterlimit="10"
       id="path3868"
       style="fill-rule:evenodd;stroke:#000000;stroke-width:0.04350596;stroke-miterlimit:10" />
    <path
       clip-rule="evenodd"
       d="M 213.6227,255.26928 L 181.8695,250.0147 C 175.98552,249.04101 171.21747,253.59934 171.21747,260.19262 L 171.21747,289.04411 C 171.21747,295.63739 175.98552,301.77377 181.8695,302.74746 L 245.3759,313.25662 C 251.25988,314.23031 256.02793,309.67198 256.02793,303.0787 L 256.02793,274.22721 C 256.02793,267.63393 251.25988,261.49755 245.3759,260.52386 L 213.6227,255.26928 z "
       i:knockout="Off"
       stroke-miterlimit="10"
       id="path3870"
       style="fill:#b0722e;fill-rule:evenodd;stroke:#000000;stroke-width:0.04350596;stroke-miterlimit:10" />
    <path
       clip-rule="evenodd"
       d="M 214.33284,322.30285 L 179.48548,316.53625 C 173.01535,315.46556 167.76824,320.8639 167.76824,328.59872 L 167.76824,362.54164 C 167.76824,370.27309 173.01254,377.41094 179.48548,378.48209 L 249.18019,390.0153 C 255.65032,391.08599 260.89743,385.68428 260.89743,377.95283 L 260.89743,344.0099 C 260.89743,336.27509 255.65032,329.14014 249.18019,328.06946 L 214.33284,322.30285 z "
       i:knockout="Off"
       stroke-miterlimit="10"
       id="path3872"
       style="fill-rule:evenodd;stroke:#000000;stroke-width:0.04350596;stroke-miterlimit:10" />
    <path
       clip-rule="evenodd"
       d="M 169.7972,231.28795 C 168.98562,212.48504 168.98562,195.6348 169.7972,179.40376 C 170.20299,163.10894 169.39141,145.87858 174.05801,134.89202 C 178.52172,123.26576 188.05783,115.87318 197.18814,112.77754 C 205.91266,109.73597 218.79654,112.47414 227.21672,117.74672 C 235.434,122.50083 241.62232,129.82857 246.18748,142.58527 C 250.34684,155.15022 252.78159,175.80103 253.89752,193.32083 C 255.01345,210.59819 254.912,227.43164 253.18739,245.08751 C 225.39066,240.48766 197.59393,235.8878 169.7972,231.28795 z "
       i:knockout="Off"
       stroke-miterlimit="10"
       id="path3874"
       style="fill-rule:evenodd;stroke:#000000;stroke-width:0.04350596;stroke-miterlimit:10" />
    <g
       id="g3876"
       transform="matrix(2.8179976,0.4663274,0,3.367354,111.70495,-99.073688)">
      <path
         style="fill:#b0722e;fill-rule:evenodd;stroke:#000000;stroke-width:0.01412323;stroke-miterlimit:10"
         id="path3878"
         stroke-miterlimit="10"
         i:knockout="Off"
         d="M 36.166727,121.31636 L 24.898727,121.31636 C 22.810727,121.31636 21.118727,122.90336 21.118727,124.86236 L 21.118727,133.42936 C 21.118727,135.38836 22.810727,136.97536 24.898727,136.97536 L 47.434727,136.97536 C 49.522727,136.97536 51.214727,135.38836 51.214727,133.42936 L 51.214727,124.86236 C 51.214727,122.90336 49.522727,121.31636 47.434727,121.31636 L 36.166727,121.31636 z "
         clip-rule="evenodd" />
      <path
         style="fill:#b0722e;fill-rule:evenodd;stroke:#000000;stroke-width:0.01412323;stroke-miterlimit:10"
         id="path3880"
         stroke-miterlimit="10"
         i:knockout="Off"
         d="M 22.630727,92.767363 C 22.342727,86.539363 22.342727,81.499363 22.630727,77.360363 C 22.774727,73.183363 22.846727,70.807363 24.106727,68.143363 C 25.366727,65.299363 27.490727,62.204363 30.334727,60.944363 C 33.214727,59.719363 38.290727,59.900363 40.990727,60.944363 C 43.510727,61.880363 44.230727,64.147363 45.490727,66.920363 C 46.714727,69.620363 47.722727,73.004363 48.226727,77.360363 C 48.622727,81.715363 48.586727,86.756363 47.974727,92.767363 C 39.550727,92.767363 31.090727,92.767363 22.630727,92.767363 z "
         clip-rule="evenodd" />
    </g>
  </g>
</svg>
