<?xml version="1.0" encoding="UTF-8" standalone="no"?>
<!-- Created with Inkscape (http://www.inkscape.org/) -->
<svg
   xmlns:i="http://ns.adobe.com/AdobeIllustrator/10.0/"
   xmlns:dc="http://purl.org/dc/elements/1.1/"
   xmlns:cc="http://web.resource.org/cc/"
   xmlns:rdf="http://www.w3.org/1999/02/22-rdf-syntax-ns#"
   xmlns:svg="http://www.w3.org/2000/svg"
   xmlns="http://www.w3.org/2000/svg"
   xmlns:xlink="http://www.w3.org/1999/xlink"
   xmlns:sodipodi="http://sodipodi.sourceforge.net/DTD/sodipodi-0.dtd"
   xmlns:inkscape="http://www.inkscape.org/namespaces/inkscape"
   width="629.21942"
   height="307.18768"
   id="svg3960"
   sodipodi:version="0.32"
   inkscape:version="0.45.1"
   version="1.0"
   sodipodi:docbase="/home/smueller/Projects/pebl/battery/donkey/svg"
   sodipodi:docname="doorways.svg"
   inkscape:output_extension="org.inkscape.output.svg.inkscape">
  <defs
     id="defs3962">
    <linearGradient
       id="linearGradient3139">
      <stop
         style="stop-color:#575757;stop-opacity:1;"
         offset="0"
         id="stop3155" />
      <stop
         style="stop-color:#c8c8c8;stop-opacity:1;"
         offset="1"
         id="stop3143" />
    </linearGradient>
    <linearGradient
       inkscape:collect="always"
       xlink:href="#linearGradient3139"
       id="linearGradient3203"
       x1="629.56091"
       y1="241.14153"
       x2="749.83069"
       y2="321.14154"
       gradientUnits="userSpaceOnUse" />
    <linearGradient
       inkscape:collect="always"
       xlink:href="#linearGradient3139"
       id="linearGradient3205"
       x1="470.41391"
       y1="241.14153"
       x2="609.01703"
       y2="331.14154"
       gradientUnits="userSpaceOnUse" />
    <linearGradient
       inkscape:collect="always"
       xlink:href="#linearGradient3139"
       id="linearGradient3207"
       x1="311.26694"
       y1="241.14153"
       x2="449.87003"
       y2="327.8082"
       gradientUnits="userSpaceOnUse" />
    <linearGradient
       inkscape:collect="always"
       xlink:href="#linearGradient3139"
       id="linearGradient3209"
       x1="152.11995"
       y1="241.14153"
       x2="275.72305"
       y2="336.14154"
       gradientUnits="userSpaceOnUse" />
  </defs>
  <sodipodi:namedview
     id="base"
     pagecolor="#ffffff"
     bordercolor="#666666"
     borderopacity="1.0"
     inkscape:pageopacity="0.0"
     inkscape:pageshadow="2"
     inkscape:zoom="0.6"
     inkscape:cx="154.1829"
     inkscape:cy="225.60324"
     inkscape:current-layer="layer1"
     inkscape:document-units="px"
     inkscape:window-width="874"
     inkscape:window-height="626"
     inkscape:window-x="160"
     inkscape:window-y="75" />
  <metadata
     id="metadata3965">
    <rdf:RDF>
      <cc:Work
         rdf:about="">
        <dc:format>image/svg+xml</dc:format>
        <dc:type
           rdf:resource="http://purl.org/dc/dcmitype/StillImage" />
      </cc:Work>
    </rdf:RDF>
  </metadata>
  <g
     id="layer1"
     inkscape:label="Layer 1"
     inkscape:groupmode="layer"
     transform="translate(-145.72361,-90.572833)">
    <path
       style="fill-rule:evenodd;stroke:#000000;stroke-width:0.04350596;stroke-miterlimit:10"
       id="path3860"
       stroke-miterlimit="10"
       i:knockout="Off"
       d="M 221.61285,90.635331 L 152.48314,90.635331 C 148.78383,90.635331 145.78611,96.712353 145.78611,104.20713 L 145.78611,378.07913 C 145.78611,385.57391 148.78534,391.65093 152.48314,391.65093 L 290.74256,391.65093 C 294.44187,391.65093 297.43959,385.57391 297.43959,378.07913 L 297.43959,104.20713 C 297.43959,96.712355 294.44035,90.635332 290.74256,90.635332 L 221.61285,90.635331 z "
       clip-rule="evenodd" />
    <path
       style="fill:#cf341a;fill-rule:evenodd;stroke:#f90f1b;stroke-width:0.04350596;stroke-miterlimit:10"
       id="path3862"
       stroke-miterlimit="10"
       i:knockout="Off"
       d="M 221.61285,94.579274 L 155.24395,94.579273 C 151.68132,94.579273 148.79294,100.44685 148.79294,107.68386 L 148.79294,372.97198 C 148.79294,380.21221 151.68132,386.07979 155.24395,386.07979 L 287.98174,386.07979 C 291.54438,386.07979 294.43276,380.21221 294.43276,372.97198 L 294.43276,107.68708 C 294.43276,100.45008 291.54438,94.582497 287.98174,94.582497 L 221.61285,94.582496 L 221.61285,94.579274 z "
       clip-rule="evenodd" />
    <path
       style="fill-rule:evenodd;stroke:#000000;stroke-width:0.04350596;stroke-miterlimit:10;fill:url(#linearGradient3209);fill-opacity:1.0"
       id="path3864"
       stroke-miterlimit="10"
       i:knockout="Off"
       d="M 221.4215,101.77117 L 158.49679,101.77117 C 155.01009,101.77117 152.18245,107.76764 152.18245,115.16897 L 152.18245,367.11729 C 152.18245,374.5154 155.00857,380.51187 158.49679,380.51187 L 284.34621,380.51187 C 287.83444,380.51187 290.66055,374.5154 290.66055,367.11729 L 290.66055,115.16897 C 290.66055,107.76764 287.83444,101.77117 284.34621,101.77117 L 221.4215,101.77117 z "
       clip-rule="evenodd" />
    <path
       style="fill-rule:evenodd;stroke:#000000;stroke-width:0.04350596;stroke-miterlimit:10"
       id="path3886"
       stroke-miterlimit="10"
       i:knockout="Off"
       d="M 380.75984,90.635331 L 311.63013,90.635331 C 307.93082,90.635331 304.9331,96.712353 304.9331,104.20713 L 304.9331,378.07913 C 304.9331,385.57391 307.93233,391.65093 311.63013,391.65093 L 449.88955,391.65093 C 453.58886,391.65093 456.58658,385.57391 456.58658,378.07913 L 456.58658,104.20713 C 456.58658,96.712355 453.58734,90.635332 449.88955,90.635332 L 380.75984,90.635331 z "
       clip-rule="evenodd" />
    <path
       style="fill:#cf341a;fill-rule:evenodd;stroke:#f90f1b;stroke-width:0.04350596;stroke-miterlimit:10"
       id="path3888"
       stroke-miterlimit="10"
       i:knockout="Off"
       d="M 380.75984,94.579274 L 314.39094,94.579273 C 310.82831,94.579273 307.93993,100.44685 307.93993,107.68386 L 307.93993,372.97198 C 307.93993,380.21221 310.82831,386.07979 314.39094,386.07979 L 447.12873,386.07979 C 450.69137,386.07979 453.57975,380.21221 453.57975,372.97198 L 453.57975,107.68708 C 453.57975,100.45008 450.69137,94.582497 447.12873,94.582497 L 380.75984,94.582496 L 380.75984,94.579274 z "
       clip-rule="evenodd" />
    <path
       style="fill-rule:evenodd;stroke:#000000;stroke-width:0.04350596;stroke-miterlimit:10;fill:url(#linearGradient3207);fill-opacity:1.0"
       id="path3890"
       stroke-miterlimit="10"
       i:knockout="Off"
       d="M 380.56849,101.77117 L 317.64378,101.77117 C 314.15708,101.77117 311.32944,107.76764 311.32944,115.16897 L 311.32944,367.11729 C 311.32944,374.5154 314.15556,380.51187 317.64378,380.51187 L 443.4932,380.51187 C 446.98143,380.51187 449.80754,374.5154 449.80754,367.11729 L 449.80754,115.16897 C 449.80754,107.76764 446.98143,101.77117 443.4932,101.77117 L 380.56849,101.77117 z "
       clip-rule="evenodd" />
    <path
       style="fill-rule:evenodd;stroke:#000000;stroke-width:0.04350596;stroke-miterlimit:10"
       id="path3912"
       stroke-miterlimit="10"
       i:knockout="Off"
       d="M 539.90681,90.635331 L 470.7771,90.635331 C 467.07779,90.635331 464.08007,96.712353 464.08007,104.20713 L 464.08007,378.07913 C 464.08007,385.57391 467.0793,391.65093 470.7771,391.65093 L 609.03652,391.65093 C 612.73583,391.65093 615.73355,385.57391 615.73355,378.07913 L 615.73355,104.20713 C 615.73355,96.712355 612.73431,90.635332 609.03652,90.635332 L 539.90681,90.635331 z "
       clip-rule="evenodd" />
    <path
       style="fill:#cf341a;fill-rule:evenodd;stroke:#f90f1b;stroke-width:0.04350596;stroke-miterlimit:10"
       id="path3914"
       stroke-miterlimit="10"
       i:knockout="Off"
       d="M 539.90681,94.579274 L 473.53791,94.579273 C 469.97528,94.579273 467.0869,100.44685 467.0869,107.68386 L 467.0869,372.97198 C 467.0869,380.21221 469.97528,386.07979 473.53791,386.07979 L 606.2757,386.07979 C 609.83834,386.07979 612.72672,380.21221 612.72672,372.97198 L 612.72672,107.68708 C 612.72672,100.45008 609.83834,94.582497 606.2757,94.582497 L 539.90681,94.582496 L 539.90681,94.579274 z "
       clip-rule="evenodd" />
    <path
       style="fill-rule:evenodd;stroke:#000000;stroke-width:0.04350596;stroke-miterlimit:10;fill:url(#linearGradient3205);fill-opacity:1.0"
       id="path3916"
       stroke-miterlimit="10"
       i:knockout="Off"
       d="M 539.71546,101.77117 L 476.79075,101.77117 C 473.30405,101.77117 470.47641,107.76764 470.47641,115.16897 L 470.47641,367.11729 C 470.47641,374.5154 473.30253,380.51187 476.79075,380.51187 L 602.64017,380.51187 C 606.1284,380.51187 608.95451,374.5154 608.95451,367.11729 L 608.95451,115.16897 C 608.95451,107.76764 606.1284,101.77117 602.64017,101.77117 L 539.71546,101.77117 z "
       clip-rule="evenodd" />
    <path
       style="fill-rule:evenodd;stroke:#000000;stroke-width:0.04350596;stroke-miterlimit:10"
       id="path3938"
       stroke-miterlimit="10"
       i:knockout="Off"
       d="M 699.05382,90.635331 L 629.92411,90.635331 C 626.2248,90.635331 623.22708,96.712353 623.22708,104.20713 L 623.22708,378.07913 C 623.22708,385.57391 626.22631,391.65093 629.92411,391.65093 L 768.18353,391.65093 C 771.88284,391.65093 774.88056,385.57391 774.88056,378.07913 L 774.88056,104.20713 C 774.88056,96.712355 771.88132,90.635332 768.18353,90.635332 L 699.05382,90.635331 z "
       clip-rule="evenodd" />
    <path
       style="fill:#cf341a;fill-rule:evenodd;stroke:#f90f1b;stroke-width:0.04350596;stroke-miterlimit:10"
       id="path3940"
       stroke-miterlimit="10"
       i:knockout="Off"
       d="M 699.05382,94.579274 L 632.68492,94.579273 C 629.12229,94.579273 626.23391,100.44685 626.23391,107.68386 L 626.23391,372.97198 C 626.23391,380.21221 629.12229,386.07979 632.68492,386.07979 L 765.42271,386.07979 C 768.98535,386.07979 771.87373,380.21221 771.87373,372.97198 L 771.87373,107.68708 C 771.87373,100.45008 768.98535,94.582497 765.42271,94.582497 L 699.05382,94.582496 L 699.05382,94.579274 z "
       clip-rule="evenodd" />
    <path
       style="fill-rule:evenodd;stroke:#000000;stroke-width:0.04350596;stroke-miterlimit:10;fill:url(#linearGradient3203);fill-opacity:1.0"
       id="path3942"
       stroke-miterlimit="10"
       i:knockout="Off"
       d="M 698.86247,101.77117 L 635.93776,101.77117 C 632.45106,101.77117 629.62342,107.76764 629.62342,115.16897 L 629.62342,367.11729 C 629.62342,374.5154 632.44954,380.51187 635.93776,380.51187 L 761.78718,380.51187 C 765.27541,380.51187 768.10152,374.5154 768.10152,367.11729 L 768.10152,115.16897 C 768.10152,107.76764 765.27541,101.77117 761.78718,101.77117 L 698.86247,101.77117 z "
       clip-rule="evenodd" />
  </g>
</svg>
