<?xml version="1.0" encoding="UTF-8" standalone="no"?>
<!-- Created with Inkscape (http://www.inkscape.org/) -->
<svg
   xmlns:i="http://ns.adobe.com/AdobeIllustrator/10.0/"
   xmlns:dc="http://purl.org/dc/elements/1.1/"
   xmlns:cc="http://web.resource.org/cc/"
   xmlns:rdf="http://www.w3.org/1999/02/22-rdf-syntax-ns#"
   xmlns:svg="http://www.w3.org/2000/svg"
   xmlns="http://www.w3.org/2000/svg"
   xmlns:sodipodi="http://sodipodi.sourceforge.net/DTD/sodipodi-0.dtd"
   xmlns:inkscape="http://www.inkscape.org/namespaces/inkscape"
   width="629.21942"
   height="307.18768"
   id="svg3960"
   sodipodi:version="0.32"
   inkscape:version="0.45.1"
   version="1.0"
   sodipodi:docbase="/home/smueller/Projects/pebl/battery/donkey/svg"
   sodipodi:docname="doorajars.svg"
   inkscape:output_extension="org.inkscape.output.svg.inkscape">
  <defs
     id="defs3962" />
  <sodipodi:namedview
     id="base"
     pagecolor="#ffffff"
     bordercolor="#666666"
     borderopacity="1.0"
     inkscape:pageopacity="0.0"
     inkscape:pageshadow="2"
     inkscape:zoom="0.6"
     inkscape:cx="154.1829"
     inkscape:cy="227.2699"
     inkscape:current-layer="layer1"
     inkscape:document-units="px"
     inkscape:window-width="874"
     inkscape:window-height="626"
     inkscape:window-x="160"
     inkscape:window-y="75" />
  <metadata
     id="metadata3965">
    <rdf:RDF>
      <cc:Work
         rdf:about="">
        <dc:format>image/svg+xml</dc:format>
        <dc:type
           rdf:resource="http://purl.org/dc/dcmitype/StillImage" />
      </cc:Work>
    </rdf:RDF>
  </metadata>
  <g
     id="layer1"
     inkscape:label="Layer 1"
     inkscape:groupmode="layer"
     transform="translate(-145.72361,-90.572833)">
    <path
       clip-rule="evenodd"
       d="M 212.91256,107.86034 L 166.1958,100.12957 C 159.72568,99.058879 154.47857,104.48753 154.47857,112.25601 L 154.47857,366.10062 C 154.47857,373.8691 159.72568,381.03099 166.1958,382.10168 L 259.62933,397.56323 C 266.09945,398.63392 271.34656,393.20863 271.34656,385.44015 L 271.34656,131.59554 C 271.34656,123.82706 266.09945,116.66181 259.62933,115.59112 L 212.91256,107.86034 z "
       i:knockout="Off"
       stroke-miterlimit="10"
       id="path3866"
       style="fill:#b0722e;fill-rule:evenodd;stroke:#000000;stroke-width:0.04350596;stroke-miterlimit:10" />
    <path
       clip-rule="evenodd"
       d="M 214.33284,251.14394 L 179.48548,245.37733 C 173.01535,244.30664 167.76824,249.70498 167.76824,257.43979 L 167.76824,291.38272 C 167.76824,299.11416 173.01254,306.25201 179.48548,307.32317 L 249.18019,318.85638 C 255.65032,319.92706 260.89743,314.52535 260.89743,306.79391 L 260.89743,272.85098 C 260.89743,265.11617 255.65032,257.98123 249.18019,256.91054 L 214.33284,251.14394 z "
       i:knockout="Off"
       stroke-miterlimit="10"
       id="path3868"
       style="fill-rule:evenodd;stroke:#000000;stroke-width:0.04350596;stroke-miterlimit:10" />
    <path
       clip-rule="evenodd"
       d="M 213.6227,255.26928 L 181.8695,250.0147 C 175.98552,249.04101 171.21747,253.59934 171.21747,260.19262 L 171.21747,289.04411 C 171.21747,295.63739 175.98552,301.77377 181.8695,302.74746 L 245.3759,313.25662 C 251.25988,314.23031 256.02793,309.67198 256.02793,303.0787 L 256.02793,274.22721 C 256.02793,267.63393 251.25988,261.49755 245.3759,260.52386 L 213.6227,255.26928 z "
       i:knockout="Off"
       stroke-miterlimit="10"
       id="path3870"
       style="fill:#b0722e;fill-rule:evenodd;stroke:#000000;stroke-width:0.04350596;stroke-miterlimit:10" />
    <path
       clip-rule="evenodd"
       d="M 214.33284,322.30285 L 179.48548,316.53625 C 173.01535,315.46556 167.76824,320.8639 167.76824,328.59872 L 167.76824,362.54164 C 167.76824,370.27309 173.01254,377.41094 179.48548,378.48209 L 249.18019,390.0153 C 255.65032,391.08599 260.89743,385.68428 260.89743,377.95283 L 260.89743,344.0099 C 260.89743,336.27509 255.65032,329.14014 249.18019,328.06946 L 214.33284,322.30285 z "
       i:knockout="Off"
       stroke-miterlimit="10"
       id="path3872"
       style="fill-rule:evenodd;stroke:#000000;stroke-width:0.04350596;stroke-miterlimit:10" />
    <path
       clip-rule="evenodd"
       d="M 169.7972,231.28795 C 168.98562,212.48504 168.98562,195.6348 169.7972,179.40376 C 170.20299,163.10894 169.39141,145.87858 174.05801,134.89202 C 178.52172,123.26576 188.05783,115.87318 197.18814,112.77754 C 205.91266,109.73597 218.79654,112.47414 227.21672,117.74672 C 235.434,122.50083 241.62232,129.82857 246.18748,142.58527 C 250.34684,155.15022 252.78159,175.80103 253.89752,193.32083 C 255.01345,210.59819 254.912,227.43164 253.18739,245.08751 C 225.39066,240.48766 197.59393,235.8878 169.7972,231.28795 z "
       i:knockout="Off"
       stroke-miterlimit="10"
       id="path3874"
       style="fill-rule:evenodd;stroke:#000000;stroke-width:0.04350596;stroke-miterlimit:10" />
    <g
       id="g3876"
       transform="matrix(2.8179976,0.4663274,0,3.367354,111.70495,-99.073688)">
      <path
         style="fill:#b0722e;fill-rule:evenodd;stroke:#000000;stroke-width:0.01412323;stroke-miterlimit:10"
         id="path3878"
         stroke-miterlimit="10"
         i:knockout="Off"
         d="M 36.166727,121.31636 L 24.898727,121.31636 C 22.810727,121.31636 21.118727,122.90336 21.118727,124.86236 L 21.118727,133.42936 C 21.118727,135.38836 22.810727,136.97536 24.898727,136.97536 L 47.434727,136.97536 C 49.522727,136.97536 51.214727,135.38836 51.214727,133.42936 L 51.214727,124.86236 C 51.214727,122.90336 49.522727,121.31636 47.434727,121.31636 L 36.166727,121.31636 z "
         clip-rule="evenodd" />
      <path
         style="fill:#b0722e;fill-rule:evenodd;stroke:#000000;stroke-width:0.01412323;stroke-miterlimit:10"
         id="path3880"
         stroke-miterlimit="10"
         i:knockout="Off"
         d="M 22.630727,92.767363 C 22.342727,86.539363 22.342727,81.499363 22.630727,77.360363 C 22.774727,73.183363 22.846727,70.807363 24.106727,68.143363 C 25.366727,65.299363 27.490727,62.204363 30.334727,60.944363 C 33.214727,59.719363 38.290727,59.900363 40.990727,60.944363 C 43.510727,61.880363 44.230727,64.147363 45.490727,66.920363 C 46.714727,69.620363 47.722727,73.004363 48.226727,77.360363 C 48.622727,81.715363 48.586727,86.756363 47.974727,92.767363 C 39.550727,92.767363 31.090727,92.767363 22.630727,92.767363 z "
         clip-rule="evenodd" />
    </g>
    <path
       clip-rule="evenodd"
       d="M 372.05955,107.86034 L 325.34279,100.12957 C 318.87267,99.058879 313.62556,104.48753 313.62556,112.25601 L 313.62556,366.10062 C 313.62556,373.8691 318.87267,381.03099 325.34279,382.10168 L 418.77632,397.56323 C 425.24644,398.63392 430.49355,393.20863 430.49355,385.44015 L 430.49355,131.59554 C 430.49355,123.82706 425.24644,116.66181 418.77632,115.59112 L 372.05955,107.86034 z "
       i:knockout="Off"
       stroke-miterlimit="10"
       id="path3892"
       style="fill:#b0722e;fill-rule:evenodd;stroke:#000000;stroke-width:0.04350596;stroke-miterlimit:10" />
    <path
       clip-rule="evenodd"
       d="M 373.47983,251.14394 L 338.63247,245.37733 C 332.16234,244.30664 326.91523,249.70498 326.91523,257.43979 L 326.91523,291.38272 C 326.91523,299.11416 332.15953,306.25201 338.63247,307.32317 L 408.32718,318.85638 C 414.79731,319.92706 420.04442,314.52535 420.04442,306.79391 L 420.04442,272.85098 C 420.04442,265.11617 414.79731,257.98123 408.32718,256.91054 L 373.47983,251.14394 z "
       i:knockout="Off"
       stroke-miterlimit="10"
       id="path3894"
       style="fill-rule:evenodd;stroke:#000000;stroke-width:0.04350596;stroke-miterlimit:10" />
    <path
       clip-rule="evenodd"
       d="M 372.76969,255.26928 L 341.01649,250.0147 C 335.13251,249.04101 330.36446,253.59934 330.36446,260.19262 L 330.36446,289.04411 C 330.36446,295.63739 335.13251,301.77377 341.01649,302.74746 L 404.52289,313.25662 C 410.40687,314.23031 415.17492,309.67198 415.17492,303.0787 L 415.17492,274.22721 C 415.17492,267.63393 410.40687,261.49755 404.52289,260.52386 L 372.76969,255.26928 z "
       i:knockout="Off"
       stroke-miterlimit="10"
       id="path3896"
       style="fill:#b0722e;fill-rule:evenodd;stroke:#000000;stroke-width:0.04350596;stroke-miterlimit:10" />
    <path
       clip-rule="evenodd"
       d="M 373.47983,322.30285 L 338.63247,316.53625 C 332.16234,315.46556 326.91523,320.8639 326.91523,328.59872 L 326.91523,362.54164 C 326.91523,370.27309 332.15953,377.41094 338.63247,378.48209 L 408.32718,390.0153 C 414.79731,391.08599 420.04442,385.68428 420.04442,377.95283 L 420.04442,344.0099 C 420.04442,336.27509 414.79731,329.14014 408.32718,328.06946 L 373.47983,322.30285 z "
       i:knockout="Off"
       stroke-miterlimit="10"
       id="path3898"
       style="fill-rule:evenodd;stroke:#000000;stroke-width:0.04350596;stroke-miterlimit:10" />
    <path
       clip-rule="evenodd"
       d="M 328.94419,231.28795 C 328.13261,212.48504 328.13261,195.6348 328.94419,179.40376 C 329.34998,163.10894 328.5384,145.87858 333.205,134.89202 C 337.66871,123.26576 347.20482,115.87318 356.33513,112.77754 C 365.05965,109.73597 377.94353,112.47414 386.36371,117.74672 C 394.58099,122.50083 400.76931,129.82857 405.33447,142.58527 C 409.49383,155.15022 411.92858,175.80103 413.04451,193.32083 C 414.16044,210.59819 414.05899,227.43164 412.33438,245.08751 C 384.53765,240.48766 356.74092,235.8878 328.94419,231.28795 z "
       i:knockout="Off"
       stroke-miterlimit="10"
       id="path3900"
       style="fill-rule:evenodd;stroke:#000000;stroke-width:0.04350596;stroke-miterlimit:10" />
    <g
       id="g3902"
       transform="matrix(2.8179976,0.4663274,0,3.367354,270.85194,-99.073688)">
      <path
         style="fill:#b0722e;fill-rule:evenodd;stroke:#000000;stroke-width:0.01412323;stroke-miterlimit:10"
         id="path3904"
         stroke-miterlimit="10"
         i:knockout="Off"
         d="M 36.166727,121.31636 L 24.898727,121.31636 C 22.810727,121.31636 21.118727,122.90336 21.118727,124.86236 L 21.118727,133.42936 C 21.118727,135.38836 22.810727,136.97536 24.898727,136.97536 L 47.434727,136.97536 C 49.522727,136.97536 51.214727,135.38836 51.214727,133.42936 L 51.214727,124.86236 C 51.214727,122.90336 49.522727,121.31636 47.434727,121.31636 L 36.166727,121.31636 z "
         clip-rule="evenodd" />
      <path
         style="fill:#b0722e;fill-rule:evenodd;stroke:#000000;stroke-width:0.01412323;stroke-miterlimit:10"
         id="path3906"
         stroke-miterlimit="10"
         i:knockout="Off"
         d="M 22.630727,92.767363 C 22.342727,86.539363 22.342727,81.499363 22.630727,77.360363 C 22.774727,73.183363 22.846727,70.807363 24.106727,68.143363 C 25.366727,65.299363 27.490727,62.204363 30.334727,60.944363 C 33.214727,59.719363 38.290727,59.900363 40.990727,60.944363 C 43.510727,61.880363 44.230727,64.147363 45.490727,66.920363 C 46.714727,69.620363 47.722727,73.004363 48.226727,77.360363 C 48.622727,81.715363 48.586727,86.756363 47.974727,92.767363 C 39.550727,92.767363 31.090727,92.767363 22.630727,92.767363 z "
         clip-rule="evenodd" />
    </g>
    <path
       clip-rule="evenodd"
       d="M 531.20652,107.86034 L 484.48976,100.12957 C 478.01964,99.058879 472.77253,104.48753 472.77253,112.25601 L 472.77253,366.10062 C 472.77253,373.8691 478.01964,381.03099 484.48976,382.10168 L 577.92329,397.56323 C 584.39341,398.63392 589.64052,393.20863 589.64052,385.44015 L 589.64052,131.59554 C 589.64052,123.82706 584.39341,116.66181 577.92329,115.59112 L 531.20652,107.86034 z "
       i:knockout="Off"
       stroke-miterlimit="10"
       id="path3918"
       style="fill:#b0722e;fill-rule:evenodd;stroke:#000000;stroke-width:0.04350596;stroke-miterlimit:10" />
    <path
       clip-rule="evenodd"
       d="M 532.6268,251.14394 L 497.77944,245.37733 C 491.30931,244.30664 486.0622,249.70498 486.0622,257.43979 L 486.0622,291.38272 C 486.0622,299.11416 491.3065,306.25201 497.77944,307.32317 L 567.47415,318.85638 C 573.94428,319.92706 579.19139,314.52535 579.19139,306.79391 L 579.19139,272.85098 C 579.19139,265.11617 573.94428,257.98123 567.47415,256.91054 L 532.6268,251.14394 z "
       i:knockout="Off"
       stroke-miterlimit="10"
       id="path3920"
       style="fill-rule:evenodd;stroke:#000000;stroke-width:0.04350596;stroke-miterlimit:10" />
    <path
       clip-rule="evenodd"
       d="M 531.91666,255.26928 L 500.16346,250.0147 C 494.27948,249.04101 489.51143,253.59934 489.51143,260.19262 L 489.51143,289.04411 C 489.51143,295.63739 494.27948,301.77377 500.16346,302.74746 L 563.66986,313.25662 C 569.55384,314.23031 574.32189,309.67198 574.32189,303.0787 L 574.32189,274.22721 C 574.32189,267.63393 569.55384,261.49755 563.66986,260.52386 L 531.91666,255.26928 z "
       i:knockout="Off"
       stroke-miterlimit="10"
       id="path3922"
       style="fill:#b0722e;fill-rule:evenodd;stroke:#000000;stroke-width:0.04350596;stroke-miterlimit:10" />
    <path
       clip-rule="evenodd"
       d="M 532.6268,322.30285 L 497.77944,316.53625 C 491.30931,315.46556 486.0622,320.8639 486.0622,328.59872 L 486.0622,362.54164 C 486.0622,370.27309 491.3065,377.41094 497.77944,378.48209 L 567.47415,390.0153 C 573.94428,391.08599 579.19139,385.68428 579.19139,377.95283 L 579.19139,344.0099 C 579.19139,336.27509 573.94428,329.14014 567.47415,328.06946 L 532.6268,322.30285 z "
       i:knockout="Off"
       stroke-miterlimit="10"
       id="path3924"
       style="fill-rule:evenodd;stroke:#000000;stroke-width:0.04350596;stroke-miterlimit:10" />
    <path
       clip-rule="evenodd"
       d="M 488.09116,231.28795 C 487.27958,212.48504 487.27958,195.6348 488.09116,179.40376 C 488.49695,163.10894 487.68537,145.87858 492.35197,134.89202 C 496.81568,123.26576 506.35179,115.87318 515.4821,112.77754 C 524.20662,109.73597 537.0905,112.47414 545.51068,117.74672 C 553.72796,122.50083 559.91628,129.82857 564.48144,142.58527 C 568.6408,155.15022 571.07555,175.80103 572.19148,193.32083 C 573.30741,210.59819 573.20596,227.43164 571.48135,245.08751 C 543.68462,240.48766 515.88789,235.8878 488.09116,231.28795 z "
       i:knockout="Off"
       stroke-miterlimit="10"
       id="path3926"
       style="fill-rule:evenodd;stroke:#000000;stroke-width:0.04350596;stroke-miterlimit:10" />
    <g
       id="g3928"
       transform="matrix(2.8179976,0.4663274,0,3.367354,429.99891,-99.073688)">
      <path
         style="fill:#b0722e;fill-rule:evenodd;stroke:#000000;stroke-width:0.01412323;stroke-miterlimit:10"
         id="path3930"
         stroke-miterlimit="10"
         i:knockout="Off"
         d="M 36.166727,121.31636 L 24.898727,121.31636 C 22.810727,121.31636 21.118727,122.90336 21.118727,124.86236 L 21.118727,133.42936 C 21.118727,135.38836 22.810727,136.97536 24.898727,136.97536 L 47.434727,136.97536 C 49.522727,136.97536 51.214727,135.38836 51.214727,133.42936 L 51.214727,124.86236 C 51.214727,122.90336 49.522727,121.31636 47.434727,121.31636 L 36.166727,121.31636 z "
         clip-rule="evenodd" />
      <path
         style="fill:#b0722e;fill-rule:evenodd;stroke:#000000;stroke-width:0.01412323;stroke-miterlimit:10"
         id="path3932"
         stroke-miterlimit="10"
         i:knockout="Off"
         d="M 22.630727,92.767363 C 22.342727,86.539363 22.342727,81.499363 22.630727,77.360363 C 22.774727,73.183363 22.846727,70.807363 24.106727,68.143363 C 25.366727,65.299363 27.490727,62.204363 30.334727,60.944363 C 33.214727,59.719363 38.290727,59.900363 40.990727,60.944363 C 43.510727,61.880363 44.230727,64.147363 45.490727,66.920363 C 46.714727,69.620363 47.722727,73.004363 48.226727,77.360363 C 48.622727,81.715363 48.586727,86.756363 47.974727,92.767363 C 39.550727,92.767363 31.090727,92.767363 22.630727,92.767363 z "
         clip-rule="evenodd" />
    </g>
    <path
       clip-rule="evenodd"
       d="M 690.35353,107.86034 L 643.63677,100.12957 C 637.16665,99.058879 631.91954,104.48753 631.91954,112.25601 L 631.91954,366.10062 C 631.91954,373.8691 637.16665,381.03099 643.63677,382.10168 L 737.0703,397.56323 C 743.54042,398.63392 748.78753,393.20863 748.78753,385.44015 L 748.78753,131.59554 C 748.78753,123.82706 743.54042,116.66181 737.0703,115.59112 L 690.35353,107.86034 z "
       i:knockout="Off"
       stroke-miterlimit="10"
       id="path3944"
       style="fill:#b0722e;fill-rule:evenodd;stroke:#000000;stroke-width:0.04350596;stroke-miterlimit:10" />
    <path
       clip-rule="evenodd"
       d="M 691.77381,251.14394 L 656.92645,245.37733 C 650.45632,244.30664 645.20921,249.70498 645.20921,257.43979 L 645.20921,291.38272 C 645.20921,299.11416 650.45351,306.25201 656.92645,307.32317 L 726.62116,318.85638 C 733.09129,319.92706 738.3384,314.52535 738.3384,306.79391 L 738.3384,272.85098 C 738.3384,265.11617 733.09129,257.98123 726.62116,256.91054 L 691.77381,251.14394 z "
       i:knockout="Off"
       stroke-miterlimit="10"
       id="path3946"
       style="fill-rule:evenodd;stroke:#000000;stroke-width:0.04350596;stroke-miterlimit:10" />
    <path
       clip-rule="evenodd"
       d="M 691.06367,255.26928 L 659.31047,250.0147 C 653.42649,249.04101 648.65844,253.59934 648.65844,260.19262 L 648.65844,289.04411 C 648.65844,295.63739 653.42649,301.77377 659.31047,302.74746 L 722.81687,313.25662 C 728.70085,314.23031 733.4689,309.67198 733.4689,303.0787 L 733.4689,274.22721 C 733.4689,267.63393 728.70085,261.49755 722.81687,260.52386 L 691.06367,255.26928 z "
       i:knockout="Off"
       stroke-miterlimit="10"
       id="path3948"
       style="fill:#b0722e;fill-rule:evenodd;stroke:#000000;stroke-width:0.04350596;stroke-miterlimit:10" />
    <path
       clip-rule="evenodd"
       d="M 691.77381,322.30285 L 656.92645,316.53625 C 650.45632,315.46556 645.20921,320.8639 645.20921,328.59872 L 645.20921,362.54164 C 645.20921,370.27309 650.45351,377.41094 656.92645,378.48209 L 726.62116,390.0153 C 733.09129,391.08599 738.3384,385.68428 738.3384,377.95283 L 738.3384,344.0099 C 738.3384,336.27509 733.09129,329.14014 726.62116,328.06946 L 691.77381,322.30285 z "
       i:knockout="Off"
       stroke-miterlimit="10"
       id="path3950"
       style="fill-rule:evenodd;stroke:#000000;stroke-width:0.04350596;stroke-miterlimit:10" />
    <path
       clip-rule="evenodd"
       d="M 647.23817,231.28795 C 646.42659,212.48504 646.42659,195.6348 647.23817,179.40376 C 647.64396,163.10894 646.83238,145.87858 651.49898,134.89202 C 655.96269,123.26576 665.4988,115.87318 674.62911,112.77754 C 683.35363,109.73597 696.23751,112.47414 704.65769,117.74672 C 712.87497,122.50083 719.06329,129.82857 723.62845,142.58527 C 727.78781,155.15022 730.22256,175.80103 731.33849,193.32083 C 732.45442,210.59819 732.35297,227.43164 730.62836,245.08751 C 702.83163,240.48766 675.0349,235.8878 647.23817,231.28795 z "
       i:knockout="Off"
       stroke-miterlimit="10"
       id="path3952"
       style="fill-rule:evenodd;stroke:#000000;stroke-width:0.04350596;stroke-miterlimit:10" />
    <g
       id="g3954"
       transform="matrix(2.8179976,0.4663274,0,3.367354,589.14592,-99.073688)">
      <path
         style="fill:#b0722e;fill-rule:evenodd;stroke:#000000;stroke-width:0.01412323;stroke-miterlimit:10"
         id="path3956"
         stroke-miterlimit="10"
         i:knockout="Off"
         d="M 36.166727,121.31636 L 24.898727,121.31636 C 22.810727,121.31636 21.118727,122.90336 21.118727,124.86236 L 21.118727,133.42936 C 21.118727,135.38836 22.810727,136.97536 24.898727,136.97536 L 47.434727,136.97536 C 49.522727,136.97536 51.214727,135.38836 51.214727,133.42936 L 51.214727,124.86236 C 51.214727,122.90336 49.522727,121.31636 47.434727,121.31636 L 36.166727,121.31636 z "
         clip-rule="evenodd" />
      <path
         style="fill:#b0722e;fill-rule:evenodd;stroke:#000000;stroke-width:0.01412323;stroke-miterlimit:10"
         id="path3958"
         stroke-miterlimit="10"
         i:knockout="Off"
         d="M 22.630727,92.767363 C 22.342727,86.539363 22.342727,81.499363 22.630727,77.360363 C 22.774727,73.183363 22.846727,70.807363 24.106727,68.143363 C 25.366727,65.299363 27.490727,62.204363 30.334727,60.944363 C 33.214727,59.719363 38.290727,59.900363 40.990727,60.944363 C 43.510727,61.880363 44.230727,64.147363 45.490727,66.920363 C 46.714727,69.620363 47.722727,73.004363 48.226727,77.360363 C 48.622727,81.715363 48.586727,86.756363 47.974727,92.767363 C 39.550727,92.767363 31.090727,92.767363 22.630727,92.767363 z "
         clip-rule="evenodd" />
    </g>
  </g>
</svg>
